<?xml version="1.0" encoding="utf-8"?>
<!-- Generator: Adobe Illustrator 26.0.3, SVG Export Plug-In . SVG Version: 6.00 Build 0)  -->
<svg version="1.1" id="Warstwa_1" xmlns="http://www.w3.org/2000/svg" xmlns:xlink="http://www.w3.org/1999/xlink" x="0px" y="0px"
	 viewBox="0 0 314.5 405.7" style="enable-background:new 0 0 314.5 405.7;" xml:space="preserve">
<style type="text/css">
	.st0{display:none;}
	.st1{display:inline;fill:#A25151;}
	.st2{display:inline;}
	.st3{fill:#8D4545;}
	.st4{fill:#D9AAAA;}
	.st5{fill:#794F11;}
	.st6{fill:#A25151;}
	.st7{fill:#2B2C2C;}
	.st8{fill:#C58C8B;}
	.st9{fill:#FFFFFF;}
	.st10{display:inline;opacity:4.000000e-02;fill:#D3D3D3;}
	.st11{display:inline;fill:#D9AAAA;}
	.st12{opacity:4.000000e-02;fill:#D3D3D3;}
	.st13{opacity:0.2;fill:#8D4545;}
	.st14{fill:#ADC5E5;}
	.st15{fill:#1A1A1A;}
	.st16{fill:#313131;}
	.st17{fill:#5C2A2A;}
	.st18{fill:#3F3F3F;}
	.st19{fill:#853E3E;}
	.st20{fill:#232323;}
	.st21{fill:#161617;}
	.st22{fill:#5C5C5C;}
	.st23{fill:#6A6A69;}
	.st24{fill:#5F3710;}
	.st25{opacity:0.2;fill:#49BDCC;}
	.st26{fill:#3D2914;}
	.st27{display:inline;opacity:7.000000e-02;fill:#D3D3D3;}
	.st28{fill:#A0B6DC;}
	.st29{fill:#1F1F1F;}
	.st30{fill:#3D3E3E;}
	.st31{fill:#E8E6E6;}
	.st32{fill:#646464;}
	.st33{fill:#543312;}
	.st34{fill:#282929;}
	.st35{fill:#F5ABAF;}
	.st36{opacity:0.6;fill:#C58C8B;}
	.st37{display:none;fill:#A25151;}
</style>
<g class="st0">
	<path class="st1" d="M310.3,249.5c0,50.3-24.3,94.9-61.8,122.7c-1.4,1.1-2.9,2.1-4.4,3.1c-7.1,4.9-14.5,9.1-22.4,12.8L141.9,375
		l-49.3,12.5c-1.7-0.8-3.4-1.7-5.1-2.5c-0.7-0.4-1.4-0.7-2.1-1.1c-10.2-5.5-19.7-12.2-28.4-19.8c-6.6-5.8-12.7-12.2-18.2-19
		c-2-2.5-3.9-5-5.7-7.6c-3.3-4.6-6.3-9.4-9-14.4c-12-21.8-18.9-46.9-18.9-73.6c0-38.4,14.2-73.5,37.6-100.3c0.6-0.7,1.2-1.4,1.8-2.1
		c0,0,0,0,0.1-0.1c0.3-0.3,0.6-0.7,0.9-1c0.3-0.4,0.7-0.8,1-1.1c7.5-7.9,15.7-15,24.7-21.2c1.8-1.2,3.6-2.4,5.4-3.6
		c0.1-0.1,0.2-0.1,0.3-0.2c0.4-0.2,0.7-0.5,1.1-0.7c1.1-0.7,2.2-1.4,3.4-2C104,104.4,130,97,157.8,97c7.2,0,14.3,0.5,21.3,1.5
		c0,0,0,0,0,0c0.2,0,0.5,0.1,0.7,0.1h0c13.1,1.9,25.6,5.4,37.4,10.4C271.9,132.1,310.3,186.3,310.3,249.5z"/>
	<g class="st2">
		<path class="st3" d="M183.3,166.6c-3.6,26.6-15.9,50.5-47.1,55.4c-0.9,0-0.9,0-0.9,0s0.1,0.8,0.3,2.3c0.7,4.5,3.1,14.6,10.7,23.3
			c0,0,0,0,0,0c3.5,10.5-36.5,18-36.5,18l-19.4-18.8c0,0,0,0,0,0c0.6-0.3,8.4-5,9.2-22.2c0-0.1,0-0.2,0-0.3c0-0.8,0.1-1.7,0.1-2.6
			c0,0,0,0,0,0c-4.2-0.9-42.7-38.7-42.7-38.7l-7.4-18.1l-2-7.4l-1.6-5.8l-0.3-1.2l-1-3.4c0.3-0.3,0.6-0.7,0.9-1
			c0.3-0.4,0.7-0.8,1-1.1c7.5-7.9,15.7-15,24.7-21.2c1.8-1.2,3.6-2.4,5.4-3.6c0.1-0.1,0.2-0.1,0.3-0.2c0.4-0.2,0.7-0.5,1.1-0.7
			c1.1-0.7,2.2-1.4,3.4-2C104,104.4,130,97,157.8,97c7.2,0,14.3,0.5,21.3,1.5c0,0,0,0,0,0c0.1,0.4,0.2,0.8,0.2,1.1
			C182.6,115.6,186.6,142.2,183.3,166.6z"/>
		<path class="st3" d="M47.8,156.9l-0.2,0.6l-1.1,2.7l-0.7-3.1c-1.1-2.7-2.1-5.3-3-7.9c0.6-0.7,1.2-1.4,1.8-2.1c0,0,0,0,0.1-0.1
			c0.3-0.3,0.6-0.7,0.9-1c0,1.6,0,3.1,0.1,4.4c0,0.5,0,0.9,0,1.4l0.3-0.2l0.3-0.2l1,0.9L47.8,156.9z"/>
		<path class="st3" d="M179.8,98.5c-0.3,0.7-0.4,1-0.4,1l-0.3-1.2c0,0,0,0,0,0C179.3,98.5,179.6,98.5,179.8,98.5z"/>
		<path class="st3" d="M182.7,167.2c0,0-5.7,10.1-18.6,18.5c-40-32.6-78.1-2.8-83,1.4c-6.2-2.5-12.8-5.6-19.7-9.4
			c-3.9-3.2-11-10.4-14.7-32.7c-0.3,0.4-0.7,0.8-1,1.1c-0.3,0.3-0.6,0.7-0.9,1c0,0,0,0-0.1,0.1l1.1,7.6l0.2,2.7
			c0.2,0.9,0.3,1.8,0.5,2.7c11.3,61.2,52.6,61.5,53.2,61.5c0,0,0,0,0,0c0,0.8,0,1.7-0.1,2.6c0,0.1,0,0.2,0,0.3
			c1.4,0.3,23.1,5.4,36-0.3c0,0,0.1,0,0.1-0.1c-0.4-2.2-0.4-2.2-0.4-2.2s0,0,0.9,0c31.2-4.8,43.5-28.8,47.1-55.4L182.7,167.2z
			 M86.6,189.2c37.4-8.5,64.3-2,71.2,0.1C142.4,197,119.2,201.1,86.6,189.2z"/>
		<path class="st3" d="M216.3,325.9c-1.9-0.2-5.1-1-9.2-1.2V338h-21v53.1c-10.4,4.8-21.5,8.5-33,10.9c-21.6-0.6-42-5.8-60.5-14.5
			c-1.7-0.8-3.4-1.7-5.1-2.5c-0.7-0.4-1.4-0.7-2.1-1.1c-10.2-5.5-19.7-12.2-28.4-19.8v-11.8l6.1-7.6l0.5-0.7l-4.8,0.3l-9.6,0.6
			L38.8,345c-2-2.5-3.9-5-5.7-7.6c-3.3-4.6-6.3-9.4-9-14.4c2.9-18.2,11.2-50.7,35.6-62.6c12.2-5.4,25.2-10.5,28.3-15.2
			c0,0,0.9,0.6,2.4,1.5c7.9,4.6,33.6,17.3,55.9,0.8c0.9-0.7,1.9-1.4,2.8-2.2C156.7,247.9,213.4,262.8,216.3,325.9z"/>
		<path class="st3" d="M208.5,372.9c-6.1,2.4-15.9,4.2-22.4,4.4c-1.8,0.1-3.3,0-4.4-0.2c-15.6-4-29.4-12-34-14.7l-0.4-0.2
			l-41.2-24.5c0,0-21.7-4.6-37.3,0.6c0,0,0,0,0,0c-3.8,1.3-7.3,3.2-10,5.8c-0.6,0.6-1.1,1.2-1.6,1.8c0,0,2.2-0.7,5.9-1.4
			c13.5-2.7,46.1-5.6,52,26.4c-4.7,3.1-17.2,8.8-29.7,12.8c-10.2-5.5-19.7-12.2-28.4-19.8c-6.6-5.8-12.7-12.2-18.2-19
			c-2-2.5-3.9-5-5.7-7.6c11.8-4,33.8-3,33.8-3l1.7,3.4c0,0,5.7-3.9,12-8.3c0.1-0.1,0.3-0.2,0.4-0.3c2-1.4,4-2.9,6-4.3
			c26.9-14,99.7,7.6,99.7,7.6s12.9-2.3,20.5,5C212.7,342.7,215.5,353,208.5,372.9z"/>
		<path class="st3" d="M147.4,362.3c-0.1,0-0.2-0.1-0.2-0.1c-10,11.7-35.4,19.2-59.6,22.8c-0.7-0.4-1.4-0.7-2.1-1.1
			c12.5-4,24.9-9.7,29.7-12.8c-5.8-32-38.5-29-52-26.4c-3.6,0.7-5.9,1.4-5.9,1.4c0.5-0.6,1-1.2,1.6-1.8c2.7-2.7,6.2-4.5,10-5.8
			c0,0,0,0,0,0c15.7-5.3,37.3-0.6,37.3-0.6L147.4,362.3z"/>
		<path class="st3" d="M211.8,377.4c-9.5,3.2-20.2,2.3-30.1-0.3c5.3,0.8,19.1-1.1,26.8-4.2c16.6-47.2-21.9-40.4-21.9-40.4l0,0
			c0-0.1-0.2-0.9-0.1-2.2c12.5-9,27.9-4.8,29.8-4.4C221.7,353.5,214.3,373.2,211.8,377.4z"/>
		<path class="st3" d="M66.9,334.4l1.9,4c0,0,16.6-12.8,18.1-13.5c1.5-0.7-6.8-5.8-6.8-5.8l-9.6,2.7L66.9,334.4z"/>
		<path class="st3" d="M168.4,317.9c0,0-2-3.7-6.1-2.2c0,0,0.7,0.9,0.6,1.8c0,0-0.4-0.6-1.2-0.9c0,0,0,0,0,0h0c0,0,0,0,0,0
			c0,0,0,0-0.1,0c0,0,0,0,0,0c-0.1,0-0.2-0.1-0.3-0.1c0,0,0,0,0,0c-0.3-0.1-0.5-0.1-0.7-0.1c0,0,0,0,0,0c-0.1,0-0.2,0-0.4,0h0
			c-0.5,0-1.5,0.1-3.2,0.6c0,0-2.3,0.5-4.5-0.2c0,0,0.2,0.4,1,1.1c0,0-8.2-2.3-5.7-10.7c0,0,2.9,7.6,8.8-0.6c0,0-0.1,1.3-0.6,2.4
			c1-0.4,5.4-2.1,9.3,1.6h0C167,311.9,168.2,314.2,168.4,317.9z"/>
	</g>
	<g class="st2">
		<path class="st4" d="M220.1,145c0,6.2-0.4,12.4-1.2,18.5c-3.6,26.6-15.9,50.5-47.1,55.4c-0.9,0-0.9,0-0.9,0s0.1,0.8,0.3,2.3
			c0.4,2.4,1.3,6.5,3.2,11.1c1.6,3.9,4,8.2,7.5,12.1l0,0c1.2,3.7-3,7.1-8.9,9.8c-10.9,5.1-27.6,8.2-27.6,8.2L126,243.7c0,0,0,0,0,0
			c0.6-0.3,8.4-5,9.2-22.2l5.9-3l-14.1-9.2l-24.2-21.1l-10.3-8.5l-7.2-17.8l-2-7.4l-1.6-5.8l-0.3-1.2l-1.1-4.2l-3.3-12V64.5l39.6-1
			l90.7-2.4l4.3,20.6l0,0l0,0.1c0.2,0.8,1.8,6.3,3.5,14.7C217.4,108.5,220.3,126.5,220.1,145z"/>
		<path class="st5" d="M214.9,96.5l-3.5-14.8l0,0c0,0-9.4,3.9-9.1,3s1.5-2.4,3.2-5.3c-10.1,5.5-34.3,10.6-39.4,11.2
			c8.9-4.4,12.3-12.5,13.9-16C166,83.4,136.8,85,129.6,85.5c3.5-2.2,7.7-7.3,10.2-10.4c-4.3,0.8-11.5,1.3-19.1,1.8
			c-14.6,0.9-30.8,1.2-30.8,1.2c-7.2,3-8.6,34.8-8.7,56.3c0,5.2,0,9.7,0.1,13.1c0,0.5,0,0.9,0,1.4l0.6-0.4l1,0.9l0.5,4.5l-0.2,0.6
			l-1.1,2.7l-0.6-3.1C47.1,68.1,78.4,32.3,102.8,21.6c1.9-0.8,3.7-1.5,5.5-2C262-8.3,214.9,96.5,214.9,96.5z"/>
		<path class="st6" d="M170.9,218.9l39.5-37l7.9-17.8l15.8,6.4c0,0-7.7,30.3-7.5,40.5c0.2,10.2-4.9,19.1-4.9,19.1h-24.4L170.9,218.9
			z"/>
		<path class="st5" d="M218.3,164.1c0,0-5.6,10.1-18.6,18.5c-11.8-9.6-23.4-13.8-34.1-14.8c-5.9-0.6-11.5-0.2-16.6,0.8
			c-17.2,3.3-29.6,13.1-32.3,15.3c-6.2-2.5-12.8-5.6-19.7-9.4c-4.2-3.4-12.1-11.5-15.4-38c-0.1-0.8-0.2-1.6-0.3-2.4
			c-1.3-10-2.3-13.9-3-15c-0.5-0.9-0.9-0.1-1.1,0.7c-0.1,0.6-0.2,1.2-0.2,1.2l3.2,22.1l1.2,8.4l0.2,2.7c0.2,0.9,0.3,1.8,0.5,2.7
			c11.3,61.2,52.6,61.5,53.2,61.5c0,0,0,0,0,0c0,0.8,0,1.7-0.1,2.6c0,0.1,0,0.2,0,0.3c1.2,0.3,16.7,3.9,29.3,1.7
			c0.3-0.1,0.7-0.1,1-0.2c2-0.4,3.9-1,5.7-1.8c0,0,0.1,0,0.1-0.1c-0.4-2.2-0.4-2.2-0.4-2.2s0,0,0.9,0c31.2-4.8,43.5-28.8,47.1-55.4
			L218.3,164.1z M165.6,193.5c-3,0.2-6.1,0.2-9.4,0c-9.9-0.5-21.2-2.7-34-7.3c11.3-2.6,21.6-3.8,30.7-4.1c4.6-0.2,8.8-0.2,12.7,0
			c14.2,0.6,24,3.1,27.8,4.2C186,190,176.8,192.8,165.6,193.5z"/>
		<path class="st7" d="M251.9,322.9c-1.9-0.2-5.1-1-9.2-1.2v13.3h-21v53.1c-6.2,2.9-12.6,5.3-19.2,7.3c-14.2,4.3-29.2,6.7-44.8,6.7
			c-23.3,0-45.4-5.2-65.2-14.6v-38.3l6.1-7.6l0.5-0.7l-4.8,0.3l-9.6,0.6l-23.2,0.4l0-0.1c-1.6-0.8-3.9-4.2-3.4-9.6
			c0.5-5.4,4-58.9,37.1-75.1c12.2-5.4,25.2-10.5,28.3-15.2c0,0,0.8,0.6,2.4,1.5c6.7,3.9,26.4,13.7,45.8,6.3
			c3.4-1.3,6.8-3.1,10.1-5.5c0.9-0.7,1.9-1.4,2.8-2.2C192.3,244.8,249,259.8,251.9,322.9z"/>
		<path class="st4" d="M244.1,369.9c-7.7,3.1-21.5,5-26.8,4.2c-15.6-4-29.4-12-34-14.7l-0.4-0.2l-41.2-24.5c0,0-36.3-7.8-48.9,8.3
			c0,0,50.4-15.5,57.8,25c-5.9,3.8-23.6,11.8-38.6,15.3c-2.5,0.3-5,0.5-7.4,0.7c-28.4,2.2-43-41.8-43-41.8
			c-2.8-12.9,40.8-10.8,40.8-10.8l1.7,3.4c0,0,10.2-6.9,18.3-12.9c26.9-14,99.7,7.6,99.7,7.6S260.7,322.7,244.1,369.9z"/>
		<polygon class="st4" points="104.5,335.4 119.2,326.5 148.7,328.8 187.8,353.4 183,359.2 127.9,379.5 112.1,383.3 93.8,368.2 
			82.7,345.4 91.1,335.4 101.5,334 		"/>
		<polygon class="st4" points="222.2,329.5 225.8,327.1 241.1,327.8 248.3,338.7 251.4,348.3 248.3,365.5 245.2,373.8 228,374.6 
			221.2,374.7 218.8,374.3 217.3,374.1 222,344 221,334.2 		"/>
		<path class="st8" d="M183,359.2c-0.1,0-0.2-0.1-0.2-0.1c-11.6,13.5-43.5,21.3-70.6,24.2c15-3.6,32.7-11.5,38.6-15.3
			c-7.4-40.5-57.8-25-57.8-25c12.6-16,48.9-8.3,48.9-8.3L183,359.2z"/>
		<path class="st8" d="M247.4,374.4c-8.1,2.7-17,2.5-25.7,0.7c-1.5-0.3-3-0.6-4.4-1c1.1,0.2,2.7,0.2,4.4,0.2
			c6.5-0.2,16.3-2,22.4-4.4c7-19.9,4.2-30.2-1.4-35.4c-7.6-7.2-20.5-5-20.5-5l0,0c0-0.1-0.2-0.9-0.1-2.2c12.5-9,27.9-4.8,29.8-4.4
			C257.3,350.4,249.9,370.1,247.4,374.4z"/>
		<path class="st7" d="M102.5,331.4l1.9,4c0,0,16.6-12.8,18.1-13.5s-6.8-5.8-6.8-5.8l-9.6,2.7L102.5,331.4z"/>
		<path class="st9" d="M203.9,314.9c0,0-2-3.7-6.1-2.2c0,0,0.7,0.9,0.6,1.8c0,0-0.4-0.6-1.2-0.9c0,0,0,0,0,0h0c0,0,0,0,0,0
			c0,0,0,0-0.1,0c0,0,0,0,0,0c-0.1,0-0.2-0.1-0.3-0.1c0,0,0,0,0,0c-0.3-0.1-0.5-0.1-0.7-0.1c0,0,0,0,0,0c-0.1,0-0.2,0-0.4,0h0
			c-0.5,0-1.5,0.1-3.2,0.6c0,0-2.3,0.5-4.5-0.2c0,0,0.2,0.4,1,1.1c0,0-8.2-2.3-5.7-10.7c0,0,2.9,7.6,8.8-0.6c0,0-0.1,1.3-0.6,2.4
			c1-0.4,5.4-2.1,9.3,1.6h0C202.6,308.9,203.8,311.2,203.9,314.9z"/>
	</g>
	<path class="st10" d="M247.4,374.4c-8.1,2.7-17,2.5-25.7,0.7v13c-6.2,2.9-12.6,5.3-19.2,7.3c-0.9-8.6-2.2-18-3.9-28
		c-2.4-14.1-5.4-29.5-9.1-45.7c-0.5-2.5-1.1-4.9-1.7-7.4c-0.5-2.4-1.1-4.8-1.7-7.2c-4-17-8.4-34.8-13.2-52.8
		c-0.4-1.4-0.8-2.9-1.1-4.3c-1.6-5.9-3.2-11.8-4.8-17.7c-0.5-1.8-1-3.7-1.5-5.5c-0.3-1.2-0.7-2.4-1-3.6c-2.8-9.9-5.5-19.8-8.4-29.6
		c-1.1-3.8-2.2-7.7-3.3-11.5c-1.3-4.5-2.6-8.9-3.9-13.3c-9.8-33.1-19.6-64.8-28.2-91.8c-1.5-4.6-2.9-9-4.3-13.4
		c-5.2-16.3-9.9-30.5-13.7-41.9c1.9-0.8,3.7-1.5,5.5-2C262-8.3,214.9,96.5,214.9,96.5c2.5,12,5.3,30,5.2,48.5c0,0.8,0,1.5,0,2.3
		c0,0.8,0,1.5-0.1,2.2c0,0.6,0,1.3-0.1,1.9c0,0.5,0,0.9-0.1,1.4c0,0.5,0,0.9-0.1,1.4c0,0.6-0.1,1.3-0.1,2c0,0.5-0.1,1-0.1,1.5
		c-0.2,1.9-0.4,3.8-0.6,5.8c-3.6,26.6-15.9,50.5-47.1,55.4c-0.9,0-0.9,0-0.9,0s0,0,0.4,2.2c0,0-0.1,0-0.1,0.1
		c0.1,0.7,0.3,1.5,0.5,2.5c0.1,0.5,0.2,1,0.4,1.5c0,0.1,0,0.2,0.1,0.3c0.1,0.6,0.3,1.2,0.5,1.9c0.4,1.3,0.8,2.6,1.4,4
		c0.1,0.3,0.2,0.6,0.3,0.9c1.6,3.9,4,8.2,7.5,12.1c0.9-0.7,1.9-1.4,2.8-2.2c7.6,2.7,64.3,17.6,67.2,80.7
		C257.3,350.4,249.9,370.1,247.4,374.4z"/>
	<path class="st11" d="M172.7,227.4c0.4,1.3,0.9,2.6,1.4,4C173.5,230,173.1,228.6,172.7,227.4z"/>
</g>
<path class="st12" d="M263.1,345.6c0,1.6-0.2,3.2-0.7,4.7c-1.4,4.8-4.8,8.6-9.2,10.7c-0.7,0.3-1.4,0.6-2.1,0.8c0,0,0,0,0,0
	c-3.6,1.7-10.7,0.7-13.7,0.2c-0.6-0.1-1.1-0.2-1.3-0.2c0,0,0,0-0.1,0c0,0,0,0,0,0c-0.2,0-0.3,0-0.5-0.1l-0.2,0
	c-0.5-0.1-1.1-0.2-1.7-0.3c-0.3,0-0.5-0.1-0.8-0.1c-1.6-0.3-3.3-0.6-5.2-1l-0.2,0c-0.1,0-0.3-0.1-0.5-0.1c-0.4-0.1-0.9-0.2-1.3-0.3
	c0,0.2,0.1,0.5,0.1,0.7c0,0.4,0.1,0.8,0.1,1.3c0,0.3,0.1,0.6,0.1,1c0.7,5.7,1.6,14,2.3,21.6c-1.5,0.8-3,1.5-4.5,2.2
	c-0.6,0.3-1.3,0.6-1.9,0.9c-6,2.8-12.2,5.2-18.6,7.2c-0.9,0.3-1.8,0.6-2.8,0.8c-2.2,0.7-4.5,1.3-6.8,1.8c0.2-13.8,0.1-27.3-0.2-40.5
	c0-0.5,0-1,0-1.5v0l0-1.3c0-0.5,0-1,0-1.5c-0.1-2.9-0.2-5.8-0.3-8.7c0-0.9-0.1-1.8-0.1-2.7c-0.2-4.8-0.4-9.6-0.6-14.4
	c0-0.8-0.1-1.6-0.1-2.4c0-0.1,0-0.1,0-0.2c0-0.1,0-0.2,0-0.3c0-0.8-0.1-1.6-0.1-2.4c0,0,0,0,0,0c-0.1-2.2-0.3-4.5-0.4-6.7
	c0-0.2,0-0.3,0-0.5c0-0.7-0.1-1.5-0.1-2.2c0-0.2,0-0.5,0-0.8c-0.1-1.4-0.2-2.9-0.3-4.3c0-0.4-0.1-0.8-0.1-1.2
	c-0.1-0.8-0.1-1.5-0.2-2.3c0-0.2,0-0.4,0-0.5c-1.1-15.4-2.5-30.2-4.2-44.6v0c-0.1-0.6-0.2-1.3-0.2-1.9c0-0.2,0-0.5-0.1-0.7
	c-0.1-0.6-0.1-1.2-0.2-1.9c-0.3-2.7-0.7-5.4-1-8.1c0,0,0,0,0-0.1v0c0-0.1,0-0.2,0-0.3c-0.1-0.8-0.2-1.5-0.3-2.2c0,0,0,0,0,0
	c0-0.1,0-0.2,0-0.3c-0.2-1.6-0.4-3.1-0.6-4.7c-0.1-0.4-0.1-0.9-0.2-1.3c0-0.1,0-0.2,0-0.3c0-0.1,0-0.1,0-0.2v0
	c-0.1-0.8-0.2-1.6-0.3-2.4c0-0.2-0.1-0.5-0.1-0.8v0c-0.5-3.8-1.1-7.5-1.6-11.2v0c-0.1-0.7-0.2-1.4-0.3-2.1c-0.1-0.3-0.1-0.6-0.2-1
	c0-0.2-0.1-0.5-0.1-0.7c0-0.1,0-0.2-0.1-0.4c0-0.3-0.1-0.6-0.1-0.9c0-0.2-0.1-0.4-0.1-0.7c-7.3-46.2-16.9-86.3-26.5-119.6
	c-1.5-5-2.9-9.9-4.4-14.6c0-0.2-0.1-0.3-0.1-0.5c-0.9-2.8-1.7-5.5-2.6-8.2c-0.1-0.2-0.1-0.3-0.2-0.5c-5.9-18.2-11.6-33.8-16.6-46.6
	c0,0,0-0.1,0-0.1l4.4,0l6.3,0c0,0-0.8-2.5-4.1-6.6c0.8,0,1.6-0.1,2.4-0.1c0.3,0,0.5,0,0.8,0c25.6,0,53.3,13.7,53.9,14
	c0-0.1-0.1-0.2-0.4-0.7v0c-0.2-0.3-0.5-0.8-0.9-1.6c1,0,1.8,0,2.8,0.1c0,0,0,0,0,0c3.5,0.5,8.2,2.8,28.7,14c0,0,18.9,34.8,9,71.2
	c-0.8,2.8-1.7,5.7-2.9,8.5c0,0,0,0,0,0c-0.1,0.2-0.2,0.5-0.3,0.7c0,0,0,0,0,0c-0.4,0.9-0.8,1.9-1.2,2.8c0-0.1,0-0.3,0-0.4
	c0.7,36.3-7,79.3-44.4,90.7c0,0-0.1,0-0.1,0c-0.2,0.1-0.4,0.1-0.7,0.2c0,0-0.1,0-0.2,0c0.1,0.3,0.2,0.7,0.3,1c0,0,0.1-0.1,0.1-0.1
	c0,0,0,0,0,0c0,0,0,0,0.1-0.1c0.1,0,0.2-0.1,0.2-0.1c0.1,0,0.2,0,0.3-0.1c0,0,0.1,0,0.1,0c0.1,0,0.3-0.1,0.4-0.1
	c0.1,0,0.2,0,0.3-0.1c0,0,0,0,0,0c0.1,0,0.2,0,0.3-0.1c0.2,0,0.4-0.1,0.5-0.1c0.2,0,0.3-0.1,0.5-0.1c0.9,0,1.8,0.1,2.7,0.2
	c0,0,0,0,0,0c10.1,1.3,16.2,7.1,20,12.5c0,0,0.1,0.1,0.1,0.1c1.7,2.5,2.9,4.8,3.8,6.7c0.5,0.5,0.9,1,1.2,1.5c0,0,0,0,0,0.1
	c0.3,0.3,0.5,0.7,0.7,1c0,0,0,0,0,0c1.3,2.3,1.1,4,0.1,5.3c0,0,0,0.1-0.1,0.1c-0.1,0.1-0.1,0.2-0.2,0.3c0,0-0.1,0.1-0.1,0.1
	c0,0,0,0,0,0c-0.2,0.2-0.3,0.3-0.5,0.5c-0.9,0.8-2.1,1.3-3.2,1.7c0,0,0,0,0,0c0.1,0.1,0.3,0.1,0.4,0.2l1,0.4l0,0l1.9,0.8l5.5,2.3
	c0,0,0,0,0,0c9.4,3.8,16.7,10.5,22.4,18.5c4.2,5.8,7.5,12.3,10.1,18.8c0,0,0,0,0,0c3.4,8.5,5.6,17,7.1,24.3c0,0.1,0,0.1,0,0.2v0.1
	c1.6,8.6,2.1,15.4,2.3,18.1c0.2,1.8,0.4,3.7,0.6,5.7c0,0.2,0,0.4,0.1,0.6v0c0,0,0,0.1,0,0.1c0.1,0.8,0.1,1.6,0.2,2.4v0
	C263,343.2,263.1,344.4,263.1,345.6z"/>
<g class="st0">
	<path class="st1" d="M310.3,249.4c0,47.8-22,90.5-56.5,118.5L92.7,331.8l-48.1,19.8c-12.1-13.4-21.8-28.9-28.6-45.9
		C9,288.3,5.2,269.3,5.2,249.4c0-35.8,12.3-68.7,33-94.7v0c4.2-5.3,8.7-10.2,13.5-14.9c0.5-0.5,1-0.9,1.4-1.4c0.5-0.5,1-0.9,1.5-1.4
		c5.3-4.8,10.9-9.3,16.8-13.4c0.5-0.3,0.9-0.7,1.4-1c0.3-0.2,0.6-0.5,1-0.7c0,0,0,0,0.1,0c0.9-0.6,1.8-1.2,2.8-1.8
		c0.1,0,0.1-0.1,0.2-0.1c0.1-0.1,0.2-0.1,0.3-0.2c0.4-0.2,0.7-0.5,1.1-0.7c0.1-0.1,0.2-0.1,0.3-0.2c1-0.6,2-1.2,3.1-1.8
		c18.1-10.5,38.5-17.3,60.3-19.5h0c5.2-0.5,10.5-0.8,15.8-0.8c1.3,0,2.7,0,4,0c4.4,0.1,8.8,0.4,13.1,0.9c5.6,0.6,11,1.5,16.4,2.7
		c9,2,17.7,4.8,26,8.3c0.8,0.3,1.6,0.7,2.4,1.1c2.7,1.2,5.4,2.5,8.1,3.9C276.8,139.2,310.3,190.4,310.3,249.4z"/>
	<g class="st2">
		<polygon class="st3" points="91.5,232 92.4,232 92.1,233.8 91,233.6 90.2,233.2 		"/>
		<rect x="83.3" y="233.3" class="st3" width="11.4" height="9.8"/>
		<g>
			<g id="Warstwa_2_00000052083465353108165250000007581818962234777485_">
				<g id="full_strona_00000112590877196760500290000012062416566216742814_">
					<path class="st3" d="M143.1,243.5c-0.3,0.2-0.6,0.4-0.9,0.6s-0.6,0.4-0.9,0.6s-0.7,0.4-1,0.6c-0.7,0.4-1.4,0.8-2.1,1.2
						c-0.3,0.2-0.7,0.4-1,0.5c-0.3,0.2-0.6,0.3-0.9,0.4c-0.4,0.2-0.7,0.4-1.1,0.5c-0.3,0.1-0.5,0.2-0.8,0.3
						c-0.6,0.3-1.3,0.5-1.9,0.8c-0.3,0.1-0.6,0.2-0.9,0.3c-0.3,0.1-0.6,0.2-0.9,0.3c-0.6,0.2-1.2,0.4-1.8,0.5
						c-8.1,2.3-16.2,2-23.2,0.7c0,0,0,0-0.1,0c-0.6-0.1-1.2-0.2-1.8-0.4c-0.6-0.1-1.2-0.3-1.8-0.4l0,0c-0.6-0.1-1.1-0.3-1.7-0.4
						c-0.6-0.2-1.2-0.3-1.8-0.5c-0.4-0.1-0.8-0.2-1.2-0.4c-0.4-0.1-0.8-0.3-1.2-0.4c-0.8-0.3-1.6-0.5-2.3-0.8
						c-0.4-0.1-0.7-0.3-1.1-0.4s-0.7-0.3-1.1-0.4c-1-0.4-2-0.8-2.8-1.2c-0.5-0.2-1-0.5-1.5-0.7c-1.5-0.7-2.8-1.4-3.8-2
						c2.6-1.2,7.3-4.9,9.3-16.6c0.3-1.9,0.6-4.1,0.8-6.5h38.3c0.4,2.2,0.8,4.4,1.3,6.5c1.2,5,2.7,9.5,5.3,13c1.1,1.5,2.5,2.9,4.2,4
						c0.1,0,0.1,0.1,0.2,0.1C142.9,243.4,143,243.4,143.1,243.5z"/>
					<path class="st3" d="M218.6,338.7l-33.2-4.8l-2.9-0.4l-56.6-8.2l-18.5-2.7L89.5,320l-32.7,23l-5,3.6l-7.2,5
						c-12.1-13.4-21.8-28.9-28.6-45.9c5.4-19.5,16.3-42.9,38.2-50.6c12.7-5.6,20.9-8.4,25.1-12c0.7-0.6,1.3-1.2,1.7-1.9
						c0,0,0.8,0.6,2.4,1.5c0.1,0,0.1,0.1,0.2,0.1c0.1,0.1,0.3,0.2,0.5,0.3c0,0,0,0,0,0c0,0,0,0,0,0c0,0,0,0,0.1,0c0,0,0,0,0.1,0
						c0.8,0.5,1.8,0.9,3,1.5c0,0,0,0,0.1,0c0,0,0.1,0,0.1,0.1c0.1,0,0.2,0.1,0.4,0.2c0.4,0.2,0.7,0.4,1.1,0.5c0.1,0,0.2,0.1,0.3,0.1
						c0,0,0,0,0.1,0c0.3,0.2,0.7,0.3,1,0.4c0.2,0.1,0.5,0.2,0.7,0.3c0.2,0.1,0.5,0.2,0.7,0.3c0.2,0.1,0.5,0.2,0.8,0.3
						c0.1,0,0.2,0.1,0.3,0.1c0.4,0.1,0.7,0.3,1.1,0.4c0.7,0.3,1.5,0.5,2.3,0.8c0.4,0.1,0.8,0.3,1.2,0.4c0,0,0,0,0.1,0c0,0,0,0,0,0
						c0.3,0.1,0.7,0.2,1.1,0.3c0,0,0,0,0,0c0,0,0,0,0,0c0.6,0.2,1.2,0.3,1.8,0.5c0.2,0,0.4,0.1,0.6,0.1c0.2,0.1,0.4,0.1,0.7,0.2
						c0.2,0,0.3,0.1,0.5,0.1c0.6,0.1,1.2,0.3,1.8,0.4c0,0,0.1,0,0.1,0c0,0,0,0,0,0c0.5,0.1,1,0.2,1.6,0.3c0,0,0,0,0,0c0,0,0,0,0.1,0
						c0,0,0,0,0.1,0v3.5h23.2v-4.2c0,0,0.1,0,0.1,0c0,0,0,0,0,0c0.5-0.1,0.9-0.2,1.3-0.4c0,0,0.1,0,0.1,0c0.1,0,0.2,0,0.2-0.1
						c0.3-0.1,0.6-0.2,0.9-0.3c0.3-0.1,0.6-0.2,0.9-0.3c0.6-0.2,1.3-0.5,1.9-0.8c0.2-0.1,0.4-0.1,0.6-0.2c0.1,0,0.1,0,0.2-0.1
						c0,0,0.1,0,0.1,0c0,0,0,0,0,0c0.2-0.1,0.4-0.2,0.6-0.2c0,0,0,0,0,0c0,0,0.1,0,0.1,0c0.1,0,0.2-0.1,0.3-0.2
						c0.1,0,0.2-0.1,0.2-0.1c0.2-0.1,0.4-0.2,0.6-0.3c0,0,0,0,0,0s0,0,0,0c0,0,0.1,0,0.1-0.1c0.2-0.1,0.4-0.2,0.7-0.3c0,0,0,0,0.1,0
						c0,0,0.1,0,0.1,0c0,0,0.1,0,0.1-0.1c0.5-0.3,0.9-0.5,1.4-0.8c0,0,0.1,0,0.1,0c0,0,0.1,0,0.1-0.1c0.1,0,0.2-0.1,0.3-0.1
						c0.1,0,0.1-0.1,0.2-0.1c0.3-0.2,0.7-0.4,1-0.6l0.9-0.6c0.3-0.2,0.6-0.4,0.9-0.6c0.5-0.4,1-0.7,1.5-1.1l0,0
						c0.3-0.3,0.6-0.5,1-0.8c0.2-0.1,0.3-0.3,0.5-0.4c0.6,0.2,1.8,0.6,3.5,1.1c1,0.3,2.3,0.7,3.7,1.2c18,5.9,61.9,24.1,64.7,78.2
						C218,321.8,218.3,328.8,218.6,338.7z"/>
				</g>
			</g>
		</g>
		<rect x="140.2" y="232.8" class="st3" width="9.4" height="9.6"/>
		<rect x="107.1" y="248.7" class="st3" width="19.9" height="5.9"/>
		<polygon class="st3" points="105.9,264.4 109,278.2 123.9,278.2 126.8,264.4 124.7,256.3 118.3,254.5 113.6,254.5 107.1,258.9 		
			"/>
		<path class="st3" d="M118.7,254.6c-7.8,1.5-22.6,22.6-22.6,22.6s-14.5-33-20.7-39.4c-5.1-5.3,10.4-5.8,16-5.8
			c-0.2,0.5-0.4,1.1-0.5,1.6l0,0l-6.7,4.3c-0.3,0.7,0.5,1.8,2.2,3.1c4.1,3.1,13.1,7.2,21.5,10.3
			C111.9,252.7,115.7,253.9,118.7,254.6z"/>
		<path class="st3" d="M145.9,242.2c-0.8,0.5-1.7,1.1-2.8,1.7c-2.1,1.2-4.7,2.5-7.4,3.7l-8.4-2.5c0,0-12.8-22-12.9-22.5
			c0-0.1,0.2-1,0.5-2.2h22.4c0.9,2.8,2.6,7.7,4.4,12.3c0.2,0.6,0.4,1.1,0.6,1.7C143.6,237.6,144.9,240.5,145.9,242.2L145.9,242.2
			L145.9,242.2z"/>
		<path class="st3" d="M114,254.6c7.8,1.5,22.6,22.6,22.6,22.6s14.5-33,20.7-39.4c5.1-5.3-10.4-5.8-16-5.8c0.2,0.5,0.4,1.1,0.5,1.6
			l0,0l6.7,4.3c0.3,0.7-0.5,1.8-2.2,3.1c-4.1,3.1-13.1,7.2-21.5,10.3C120.8,252.7,117,253.9,114,254.6z"/>
		<polygon class="st3" points="125.8,325.3 107.3,322.6 113.3,278.2 119.4,278.2 		"/>
		<path class="st3" d="M59.2,317l-2.5,26l-5,3.6C55.4,329.9,59.2,317,59.2,317z"/>
		<path class="st3" d="M185.4,333.9l-2.9-0.4l-1.6-16.4C180.8,317,182.9,323.8,185.4,333.9z"/>
		<path class="st3" d="M145.4,241.5c-0.2-0.1-3.3-1.1-6.9-2.3c-5-1.7-10.9-3.8-11.4-4.5c-1-1.2-3.5-9-3.5-9l1.5-6h12.8
			C138.5,225.9,145,240.5,145.4,241.5L145.4,241.5z"/>
		<path class="st3" d="M138.7,223.3c-0.1,0-0.2,0.1-0.3,0.1c-1.8,0.3-3.6,0.6-5.5,0.9c-2.9,0.4-5.9,0.6-9,0.7
			c-1.6,0.1-3.1,0.1-4.8,0.1h-6.2c-7.2,0-13.7-0.6-19.6-1.8c-38.4-7.5-51.9-37.8-55.1-68.6v0c4.2-5.3,8.7-10.2,13.5-14.9
			c0.5-0.5,1-0.9,1.4-1.4c0.5-0.5,1-0.9,1.5-1.4c5.3-4.8,10.9-9.3,16.8-13.4c0.5-0.3,0.9-0.7,1.4-1c0.3-0.2,0.6-0.5,1-0.7
			c0,0,0,0,0.1,0c0.9-0.6,1.8-1.2,2.8-1.8c0.1,0,0.1-0.1,0.2-0.1c0.1-0.1,0.2-0.1,0.3-0.2c0.4-0.2,0.7-0.5,1.1-0.7
			c0.1-0.1,0.2-0.1,0.3-0.2c1-0.6,2-1.2,3.1-1.8c18.1-10.5,38.5-17.3,60.3-19.5h0c5.2-0.5,10.5-0.8,15.8-0.8c1.3,0,2.7,0,4,0
			c4.4,0.1,8.8,0.4,13.1,0.9c5.6,0.6,11,1.5,16.4,2.7c1.1,6.5,2.2,14.3,2.8,22.6c0.1,1.6,0.2,3.2,0.3,4.8c0.1,1.1,0.1,2.2,0.1,3.3
			C195.7,168.5,186.9,213.8,138.7,223.3z"/>
		<path class="st3" d="M137.7,312.4c0,0,13.8,5.4,29.9,0H137.7z"/>
		<rect x="133.6" y="297.2" class="st3" width="37.8" height="21.9"/>
		<rect x="149.9" y="297.2" class="st3" width="5.1" height="3.2"/>
		<path class="st3" d="M163,313.8c0,0-2-3.7-6.1-2.2c0,0,0.7,0.9,0.6,1.8c0,0-0.4-0.6-1.2-0.9c0,0,0,0,0,0h0c0,0,0,0,0,0
			c0,0,0,0-0.1,0c0,0,0,0,0,0c-0.1,0-0.2-0.1-0.3-0.1c0,0,0,0,0,0c-0.3-0.1-0.5-0.1-0.7-0.1c0,0,0,0,0,0c-0.1,0-0.2,0-0.4,0h0
			c-0.5,0-1.5,0.1-3.2,0.6c0,0-2.3,0.5-4.5-0.2c0,0,0.2,0.4,1,1.1c0,0-8.2-2.3-5.7-10.7c0,0,2.9,7.6,8.8-0.6c0,0-0.1,1.3-0.6,2.4
			c1-0.4,5.4-2.1,9.3,1.6h0C161.6,307.8,162.8,310.1,163,313.8z"/>
		<rect x="149.9" y="294.2" class="st3" width="5.1" height="3"/>
		<path class="st3" d="M194,123.2L194,123.2c0,0.1-7.8-15.5-19.1-25.3c5.6,0.6,11,1.5,16.4,2.7C192.3,107.1,193.4,114.8,194,123.2z"
			/>
		<path class="st13" d="M109,124.6v14.6l-3.2,7.7l-4.9,2.6L79.8,150L62,149.4l-5.8-2.4l-2.7-3.8l-0.4-4.7c0.5-0.5,1-0.9,1.5-1.4
			c5.3-4.8,10.9-9.3,16.8-13.4c0.5-0.3,0.9-0.7,1.4-1c0.3-0.2,0.6-0.5,1-0.7c0,0,0,0,0.1,0c0.9-0.6,1.8-1.2,2.8-1.8l28,0.3l3.1,2.8
			L109,124.6z"/>
		<polygon class="st13" points="126.5,120.6 171.8,121.2 176.1,122.1 177.2,129.5 177.2,138.7 176.1,144.5 172.3,148 162.1,150 
			141.2,150 128.8,148.8 122.5,143.3 121.6,133.8 122.1,122.6 		"/>
		<path class="st3" d="M110.3,124.6c-0.4-1.6-1.3-3-2.5-4c-1.2-1-2.8-1.5-4.4-1.5H78.5c-0.1,0.1-0.2,0.1-0.3,0.2
			c-0.4,0.2-0.7,0.4-1.1,0.7c-0.1,0.1-0.2,0.1-0.3,0.2c-0.1,0-0.1,0.1-0.2,0.1c-0.9,0.6-1.9,1.2-2.8,1.8c0,0,0,0-0.1,0h29.6
			c2.3,0,4.2,1.9,4.2,4.2v11.9c0,5.4-4.4,9.8-9.8,9.8H64.5c-5.4,0-9.8-4.4-9.8-9.8v-1.1c-0.5,0.4-1,0.9-1.5,1.4
			c-0.5,0.5-1,0.9-1.4,1.4c0.8,6.3,6.2,11.2,12.7,11.2h33.2c7.1,0,12.8-5.8,12.8-12.8v-11.9C110.5,125.7,110.5,125.1,110.3,124.6z"
			/>
		<path class="st3" d="M171.9,119.1h-44.6c-1.6,0-3.2,0.6-4.4,1.5c-1.3,1-2.2,2.4-2.6,4c-0.1,0.5-0.2,1.1-0.2,1.7v11.9
			c0,7.1,5.8,12.8,12.8,12.8h33.3c7.1,0,12.8-5.8,12.8-12.8v-11.9C179.1,122.3,175.9,119.1,171.9,119.1z M123.2,138.2v-11.9
			c0-2.3,1.9-4.2,4.2-4.2h44.6c2.3,0,4.2,1.9,4.2,4.2v11.9c0,5.4-4.4,9.8-9.8,9.8H133C127.6,148,123.2,143.6,123.2,138.2z"/>
		<rect x="107.8" y="120.6" class="st3" width="15.3" height="4"/>
		<path class="st3" d="M194.4,131.3l-15.3,4.5l-1,0.3l-0.9-3.1l1.9-0.5l15.2-4.5C194.3,129.1,194.4,130.2,194.4,131.3z"/>
	</g>
	<g class="st2">
		<polygon class="st14" points="126.3,233 127.2,233 126.9,234.8 125.8,234.6 125,234.2 		"/>
		<rect x="118.1" y="234.3" class="st15" width="11.4" height="9.8"/>
		<g>
			<g id="Warstwa_2_00000070088241990456252780000014751914317061873852_">
				<g id="full_strona_00000072978889295314914340000009504795130331758498_">
					<path class="st4" d="M177.9,244.5c-0.3,0.2-0.6,0.4-0.9,0.6s-0.6,0.4-0.9,0.6s-0.7,0.4-1,0.6c-0.7,0.4-1.4,0.8-2.1,1.2
						c-0.3,0.2-0.7,0.4-1,0.5c-0.3,0.2-0.6,0.3-0.9,0.4c-0.4,0.2-0.7,0.4-1.1,0.5c-0.3,0.1-0.5,0.2-0.8,0.3
						c-0.6,0.3-1.3,0.5-1.9,0.8c-0.3,0.1-0.6,0.2-0.9,0.3c-0.3,0.1-0.6,0.2-0.9,0.3c-0.6,0.2-1.2,0.4-1.8,0.5
						c-8.1,2.3-16.2,2-23.2,0.7c0,0,0,0-0.1,0c-0.6-0.1-1.2-0.2-1.8-0.4c-0.6-0.1-1.2-0.3-1.8-0.4l0,0c-0.6-0.1-1.1-0.3-1.7-0.4
						c-0.6-0.2-1.2-0.3-1.8-0.5c-0.4-0.1-0.8-0.2-1.2-0.4c-0.4-0.1-0.8-0.3-1.2-0.4c-0.8-0.3-1.6-0.5-2.3-0.8
						c-0.4-0.1-0.7-0.3-1.1-0.4s-0.7-0.3-1.1-0.4c-1-0.4-2-0.8-2.8-1.2c-0.5-0.2-1-0.5-1.5-0.7c-1.5-0.7-2.8-1.4-3.8-2
						c2.6-1.2,7.3-4.9,9.3-16.6c0.3-1.9,0.6-4.1,0.8-6.5h38.3c0.4,2.2,0.8,4.4,1.3,6.5c1.2,5,2.7,9.5,5.3,13c1.1,1.5,2.5,2.9,4.2,4
						c0.1,0,0.1,0.1,0.2,0.1C177.7,244.4,177.8,244.4,177.9,244.5z"/>
					<path class="st16" d="M253.8,368c-1.8,1.4-3.5,2.8-5.3,4.1c-1.4,1.1-2.9,2.1-4.4,3.1c-4.8,3.3-9.7,6.3-14.9,9
						c-2.3,1.2-4.6,2.4-6.9,3.5c-0.2,0.1-0.4,0.2-0.6,0.3c-7.7,3.6-15.8,6.5-24.1,8.8c-12.5,3.4-25.6,5.2-39.2,5.2h-0.7
						c-4.8,0-9.6-0.2-14.3-0.7c-18.1-1.7-35.2-6.5-50.9-13.9c-1.7-0.8-3.4-1.6-5.1-2.5c-2.3-1.2-4.6-2.5-6.9-3.8
						c-13.5-7.9-25.7-17.9-36.1-29.4c0.5-6,1-11.7,1.5-16.7c0.1-2.7,0.6-9.3,2.2-17.7v-0.1c0-0.1,0-0.1,0-0.2
						c4.1-20.7,14.7-51.8,40.6-60.9c12.7-5.6,20.9-8.4,25.1-12h0c0.7-0.6,1.2-1.2,1.7-1.8c0,0,0.8,0.5,2.4,1.5c0,0,0,0,0,0
						c0.1,0,0.1,0.1,0.2,0.1h0c0.1,0.1,0.2,0.2,0.4,0.2c0,0,0.1,0.1,0.1,0.1c0,0,0,0,0,0c0.9,0.5,2,1,3.2,1.7c0,0,0.1,0,0.1,0h0
						c0.1,0,0.2,0.1,0.4,0.2c0.4,0.2,0.7,0.4,1.1,0.5c0,0,0.1,0,0.1,0.1c0.6,0.3,1.2,0.6,1.9,0.8c0.2,0.1,0.5,0.2,0.7,0.3h0
						c0.2,0.1,0.5,0.2,0.8,0.3c0.1,0,0.2,0.1,0.3,0.1c0.4,0.1,0.7,0.3,1.1,0.4c0.7,0.3,1.5,0.5,2.3,0.8c0.4,0.1,0.8,0.3,1.2,0.4
						c0,0,0,0,0,0c0.4,0.1,0.8,0.2,1.1,0.4c0,0,0,0,0,0c0.6,0.2,1.2,0.3,1.8,0.5c0.1,0,0.2,0,0.3,0.1c0.1,0,0.2,0.1,0.3,0.1
						c0.2,0.1,0.4,0.1,0.6,0.2c0.2,0,0.3,0.1,0.5,0.1c0.6,0.1,1.2,0.3,1.8,0.4h0c0.6,0.1,1.2,0.2,1.8,0.4c0,0,0,0,0,0c0,0,0,0,0.1,0
						v3.5h23.2v-4.2h0c0.6-0.2,1.2-0.3,1.8-0.5c0.3-0.1,0.6-0.2,0.9-0.3c0.3-0.1,0.6-0.2,0.9-0.3c0,0,0,0,0,0
						c0.4-0.1,0.9-0.3,1.4-0.6c0.2-0.1,0.3-0.1,0.5-0.2c0.3-0.1,0.5-0.2,0.8-0.3h0c0.3-0.1,0.6-0.2,0.8-0.4c0.1,0,0.2-0.1,0.3-0.1h0
						c0,0,0.1,0,0.1-0.1c0.2-0.1,0.5-0.3,0.8-0.3h0c0.4-0.2,0.7-0.3,1-0.5c0.4-0.2,0.9-0.5,1.3-0.7c0,0,0.1-0.1,0.1-0.1
						c0.1,0,0.1-0.1,0.2-0.1c0.2-0.1,0.3-0.2,0.5-0.3c0.3-0.2,0.7-0.4,1-0.6l0.9-0.6c0.3-0.2,0.6-0.4,0.9-0.6c0.5-0.3,1-0.7,1.5-1.1
						c0.3-0.3,0.6-0.5,1-0.8h0c0.2-0.2,0.3-0.3,0.5-0.4c0.6,0.2,1.8,0.6,3.5,1.1h0c1,0.3,2.3,0.7,3.7,1.2h0
						c18,5.9,61.9,24.1,64.7,78.2C252.8,322.8,253.6,346.2,253.8,368z"/>
					<path class="st5" d="M214.8,97c0,0.1-0.1,0.1-0.1,0.2l0,0c0,0,0-0.1-0.1-0.2l0,0l0,0v-0.1C214.6,96.9,214.7,96.9,214.8,97z"/>
				</g>
			</g>
		</g>
		<rect x="175" y="233.8" class="st15" width="9.4" height="9.6"/>
		<rect x="141.9" y="249.7" class="st4" width="19.9" height="5.9"/>
		<polygon class="st17" points="140.7,265.4 143.8,279.2 158.7,279.2 161.6,265.4 159.5,257.3 153.1,255.5 148.4,255.5 141.9,259.9 
					"/>
		<path class="st18" d="M153.5,255.6c-7.8,1.5-22.6,22.6-22.6,22.6s-14.5-33-20.7-39.4c-5.1-5.3,10.4-5.8,16-5.8
			c-0.2,0.5-0.4,1.1-0.5,1.6l0,0l-6.7,4.3c-0.3,0.7,0.5,1.8,2.2,3.1c4.1,3.1,13.1,7.2,21.5,10.3
			C146.7,253.7,150.5,254.9,153.5,255.6z"/>
		<path class="st4" d="M180.7,243.1c-0.8,0.5-1.7,1.1-2.8,1.7c-2.1,1.2-4.7,2.5-7.4,3.7l-8.4-2.5c0,0-12.8-22-12.9-22.5
			c0-0.1,0.2-1,0.5-2.2h22.4c0.9,2.8,2.6,7.7,4.4,12.3c0.2,0.6,0.4,1.1,0.6,1.7C178.4,238.5,179.7,241.4,180.7,243.1L180.7,243.1
			L180.7,243.1z"/>
		<path class="st18" d="M192.1,238.8c-1.1,1.2-2.5,3.2-4,5.7c-3.9,6.5-8.6,16.3-12.1,23.6c-2.7,5.8-4.6,10.1-4.6,10.1
			s-4.5-6.4-9.9-12.5c-3.4-3.9-7.2-7.5-10.4-9.2c-0.8-0.5-1.6-0.8-2.3-0.9c0.1,0,0.3-0.1,0.4-0.1c0.3-0.1,0.5-0.1,0.8-0.2
			c0.4-0.1,0.8-0.2,1.1-0.3c2.5-0.7,5.4-1.6,8.5-2.7c0.5-0.2,1-0.4,1.5-0.5c0.2-0.1,0.5-0.2,0.7-0.3c2.6-1,5.2-2.1,7.7-3.2
			c0.5-0.2,1-0.5,1.5-0.7c2.4-1.1,4.7-2.2,6.6-3.3c0.5-0.3,1-0.6,1.4-0.8c0.5-0.3,0.9-0.6,1.3-0.9c0.3-0.2,0.5-0.4,0.8-0.5
			c1.7-1.3,2.5-2.4,2.2-3.1l-6.2-4l-0.2-0.1l-0.3-0.2c0-0.2-0.1-0.5-0.2-0.8c-0.1-0.3-0.2-0.5-0.3-0.8h0.2
			C182.1,233,197.1,233.6,192.1,238.8z"/>
		<path class="st19" d="M168.2,382.3l-9.7,19.7h-0.7c-4.8,0-9.6-0.2-14.3-0.7l-9.4-19l14-103.1h6.1L168.2,382.3z"/>
		<path class="st20" d="M94,318l-6.5,66.9c-2.3-1.2-4.6-2.5-6.9-3.8C83.9,351.8,94,318,94,318z"/>
		<path class="st20" d="M229.3,384.2c-2.3,1.2-4.6,2.4-6.9,3.5l-6.8-69.7C215.6,318,226.4,354.2,229.3,384.2z"/>
		<path class="st4" d="M180.2,242.5c-0.2-0.1-2.4-0.8-5.2-1.7c-0.6-0.2-1.1-0.4-1.7-0.6c-1.5-0.5-3-1-4.5-1.6
			c-3.5-1.2-6.5-2.4-6.9-2.9c-1-1.2-3.5-9-3.5-9l0.2-0.7l1.2-4.6l0.2-0.6h12.8c0.1,1,0.4,2.2,0.7,3.6c0.7,2.7,1.8,5.8,2.9,8.7
			c0.1,0.3,0.2,0.5,0.3,0.8c0.1,0.4,0.3,0.7,0.4,1.1c1,2.6,2,4.8,2.6,6.2c0,0,0,0.1,0,0.1C179.9,241.9,180.1,242.4,180.2,242.5z"/>
		<path class="st4" d="M214.8,97c0,0.1-0.1,0.1-0.1,0.2l0,0c0,0,0-0.1-0.1-0.2l0,0l0,0v-0.1C214.6,96.9,214.7,96.9,214.8,97z"/>
		<path class="st4" d="M227.7,113.8L227.7,113.8C227.7,113.8,227.7,113.8,227.7,113.8L227.7,113.8z"/>
		<path class="st4" d="M173.4,224.3c-0.1,0-0.2,0.1-0.3,0.1c-1.8,0.3-3.6,0.6-5.5,0.9c-0.7,0.1-1.5,0.2-2.2,0.2
			c-2.2,0.2-4.5,0.4-6.8,0.5c-1.6,0.1-3.2,0.1-4.8,0.1h-6.2c-7.2,0-13.7-0.6-19.6-1.8c-48.2-9.4-57.1-54.7-55.8-91.9
			c0-1.1,0.1-2.2,0.2-3.3c0.1-1.7,0.2-3.3,0.3-4.9l15.4-33.7l0.8-9.5h127.3v11.5l11.6,21.3v7.5l1,2.9l0.1,0.1
			c0.1,1.5,0.2,3.1,0.3,4.6c0.1,1.1,0.1,2.2,0.1,3.3C230.4,169.4,221.7,214.8,173.4,224.3z"/>
		<path class="st14" d="M172.5,313.4c0,0,13.8,5.4,29.9,0H172.5z"/>
		<path class="st21" d="M203.9,320h-33.4c-1.2,0-2.2-1-2.2-2.2v-17.4c0-1.2,1-2.2,2.2-2.2h33.4c1.2,0,2.2,1,2.2,2.2v17.4
			C206.1,319.1,205.1,320,203.9,320z"/>
		<rect x="184.7" y="298.2" class="st22" width="5.1" height="3.2"/>
		<path class="st9" d="M197.7,314.8c0,0-2-3.7-6.1-2.2c0,0,0.7,0.9,0.6,1.8c0,0-0.4-0.6-1.2-0.9c0,0,0,0,0,0h0c0,0,0,0,0,0
			c0,0,0,0-0.1,0c0,0,0,0,0,0c-0.1,0-0.2-0.1-0.3-0.1c0,0,0,0,0,0c-0.3-0.1-0.5-0.1-0.7-0.1c0,0,0,0,0,0c-0.1,0-0.2,0-0.4,0h0
			c-0.5,0-1.5,0.1-3.2,0.6c0,0-2.3,0.5-4.5-0.2c0,0,0.2,0.4,1,1.1c0,0-8.2-2.3-5.7-10.7c0,0,2.9,7.6,8.8-0.6c0,0-0.1,1.3-0.6,2.4
			c1-0.4,5.4-2.1,9.3,1.6h0C196.3,308.8,197.5,311.1,197.7,314.8z"/>
		<rect x="184.7" y="295.2" class="st23" width="5.1" height="3"/>
		<path class="st24" d="M228.7,124.2L228.7,124.2c0,0.1-17.9-35.5-38.8-33.3c-20.9,2.2-39.2,10.1-39.2,10.1s-10.5-4.5-24.7-7.7
			c-4.6-1-9.5-1.9-14.6-2.4c-20.5-2.2-38.1,32.1-38.7,33.4C74.5,100,80,81,80,81s7.4-19.2,31.6-30.4c10-4.6,22.8-7.9,39.1-7.9
			c56,0,70.7,38.3,70.7,38.3h0.2C221.6,81.2,227,100.1,228.7,124.2z"/>
		<polygon class="st25" points="88.3,124.2 92.5,121 139.4,121.6 143.8,125.5 143.8,140.2 140.5,147.8 135.7,150.4 114.5,151 
			96.8,150.4 91,147.9 88.3,144.1 87.3,133 		"/>
		<polygon class="st25" points="161.2,121.6 206.5,122.2 210.9,123.1 212,130.5 212,139.7 210.9,145.5 207.1,149 196.8,151 
			175.9,151 163.5,149.7 157.3,144.2 156.4,134.8 156.9,123.6 		"/>
		<path class="st26" d="M145.1,125.5c-0.4-1.6-1.3-3-2.5-3.9c-1.2-1-2.8-1.5-4.4-1.5H93.5c-4,0-7.2,3.2-7.2,7.2v11.9
			c0,7.1,5.8,12.8,12.8,12.8h33.2c4.3,0,8.1-2.1,10.5-5.4c1.5-2.1,2.4-4.7,2.4-7.4v-11.9C145.3,126.7,145.2,126.1,145.1,125.5z
			 M89.4,127.2c0-2.3,1.9-4.2,4.2-4.2h44.6c2.3,0,4.2,1.9,4.2,4.2v11.9c0,1.2-0.2,2.4-0.6,3.4c-1.4,3.7-5,6.4-9.2,6.4H99.2
			c-5.4,0-9.8-4.4-9.8-9.8V127.2z"/>
		<path class="st26" d="M206.7,120.1h-44.6c-1.6,0-3.1,0.6-4.4,1.5c-1.3,1-2.2,2.4-2.6,4c-0.1,0.5-0.2,1.1-0.2,1.7v11.9
			c0,7.1,5.8,12.8,12.8,12.8H201c7.1,0,12.8-5.8,12.8-12.8v-11.9C213.9,123.3,210.6,120.1,206.7,120.1z M210.9,139.2
			c0,5.4-4.4,9.8-9.8,9.8h-33.3c-5.4,0-9.8-4.4-9.8-9.8v-11.9c0-2.3,1.9-4.2,4.2-4.2h44.6c2.3,0,4.2,1.9,4.2,4.2V139.2z"/>
		<rect x="142.5" y="121.6" class="st26" width="15.3" height="4"/>
		<path class="st26" d="M229.2,132.3l-15.3,4.5h0l-1,0.3L212,134l1.9-0.5h0L229,129C229.1,130.1,229.1,131.2,229.2,132.3z"/>
		<path class="st26" d="M89,134l-0.9,3.1l-1.7-0.5l-14.1-4.2c0-1.1,0.1-2.2,0.2-3.3l14,4.1L89,134z"/>
	</g>
	<path class="st27" d="M253.8,368c-1.8,1.4-3.5,2.8-5.3,4.1c-1.4,1.1-2.9,2.1-4.4,3.1c-4.8,3.3-9.7,6.3-14.9,9
		c-2.3,1.2-4.6,2.4-6.9,3.5c-0.2,0.1-0.4,0.2-0.6,0.3c-7.7,3.6-15.8,6.5-24.1,8.8c-1.7-23.7-5.5-49.7-10.6-76.7
		c-0.3-1.4-0.5-2.8-0.8-4.3c-0.1-0.6-0.2-1.2-0.4-1.8c0-0.2-0.1-0.3-0.1-0.5c-0.5-2.6-1-5.2-1.6-7.8c-0.5-2.5-1-4.9-1.5-7.4
		c-2.1-10-4.3-20-6.7-30c-1.5-6.6-3.1-13.2-4.8-19.8v0c0,0,0-0.1,0-0.1c-0.1-0.2-0.1-0.4-0.2-0.6c-0.8-3-1.5-6-2.3-9
		c-1.1-4.4-2.2-8.8-3.4-13.1c-0.4-1.4-0.7-2.8-1.1-4.2c0-0.2-0.1-0.4-0.2-0.6c-6.8-25.6-14.1-50.7-21.2-74.1
		c-0.3-0.8-0.5-1.7-0.8-2.5c-0.2-0.5-0.3-1-0.5-1.5c-2-6.7-4.1-13.2-6.1-19.5c-0.2-0.5-0.3-1-0.5-1.5c-0.2-0.5-0.3-1-0.5-1.5
		c-3-9.3-5.8-18.3-8.6-26.8c-1.4-4.2-2.7-8.3-4.1-12.3c-3.7-11.2-7.2-21.4-10.3-30.4c10-4.6,22.8-7.9,39.1-7.9
		c56,0,70.7,38.3,70.7,38.3h0.2c0,0.2,5.4,19.1,7.1,43.2c0.1,1.6,0.2,3.2,0.3,4.8c0.1,1.1,0.1,2.2,0.1,3.3
		c1.3,37.1-7.5,82.5-55.8,92c0.7,2.7,1.8,5.8,2.9,8.7c5.8,0,20.8,0.6,15.8,5.8c-1.1,1.2-2.5,3.2-4,5.7c18,5.9,61.9,24.1,64.7,78.2
		C252.8,322.8,253.6,346.2,253.8,368z"/>
</g>
<path class="st4" d="M184.4,233.5c0,0-1.5-13.3,0.2-14.7c-2.5-2.3-2.8-2.4-2.8-2.4s-3.1,6.4-3,6.5c0,0.1,0.1,6.6,0,7.1
	C178.6,230.5,184.4,233.5,184.4,233.5z"/>
<path class="st6" d="M310.5,249.1c0,50.3-24.3,94.9-61.8,122.7c-1.4,1.1-2.9,2.1-4.4,3.1c-4.7,3.2-9.6,6.2-14.7,8.9l-52.4-29.5
	l-48.6,2l-75.9,3.2c-4.9-4.7-9.5-9.6-13.7-14.9c-1.2-1.5-2.4-3.1-3.6-4.6c0,0,0,0,0,0c-0.7-1-1.4-2-2.1-3c-3.3-4.6-6.3-9.4-9-14.4
	c-12-21.8-18.9-46.9-18.9-73.6c0-38.4,14.2-73.5,37.6-100.3c0.6-0.7,1.2-1.4,1.8-2.1c0,0,0-0.1,0.1-0.1c0.3-0.3,0.6-0.7,0.9-1
	c0.4-0.4,0.7-0.8,1-1.1c7.5-7.9,15.7-15,24.7-21.2c0.8-0.6,1.6-1.1,2.4-1.6c0.5-0.4,1.1-0.7,1.6-1c0.5-0.3,0.9-0.6,1.4-0.9
	c0.1-0.1,0.2-0.1,0.3-0.2c0.4-0.2,0.7-0.5,1.1-0.7c0.7-0.5,1.5-0.9,2.2-1.4c0.4-0.2,0.8-0.5,1.1-0.7c3.1-1.8,6.2-3.5,9.5-5
	c1.1-0.5,2.2-1.1,3.4-1.6c3.2-1.5,6.4-2.8,9.7-4c15.7-5.9,32.5-9.3,50.1-9.7c1.2,0,2.3,0,3.5,0c3.4,0,6.7,0.1,10,0.3
	c3.8,0.2,7.5,0.6,11.2,1.1c0,0,0,0,0,0c0.2,0,0.4,0.1,0.7,0.1h0c9.6,1.4,18.9,3.7,27.8,6.7h0c1.3,0.4,2.6,0.9,3.9,1.4
	c1.9,0.7,3.8,1.5,5.7,2.3c0.3,0.1,0.6,0.2,0.8,0.4c3.1,1.3,6.1,2.8,9.1,4.3c0.9,0.5,1.8,0.9,2.8,1.4c1.2,0.6,2.3,1.3,3.4,1.9
	c0.6,0.3,1.2,0.7,1.7,1C280.2,144,310.5,193,310.5,249.1z"/>
<path class="st3" d="M168,96.9L162,266.5l-33.5,89.9l-75.9,3.2c-4.9-4.7-9.5-9.6-13.7-14.9c-1.2-1.5-2.4-3.1-3.6-4.6
	c0,0,0.4-82.3,55.3-93.9c-1.3-1.1-4.9-3.6,0.2-9.1c3.1-5.6,10-20.8,29.4-20.1c-4.9-2.1-50-12.2-46.4-95.2c0.5-0.4,1.1-0.7,1.6-1
	c0.5-0.3,0.9-0.6,1.4-0.9c0.1-0.1,0.2-0.1,0.3-0.2c0.4-0.2,0.7-0.5,1.1-0.7c0.7-0.5,1.5-0.9,2.2-1.4c0.4-0.2,0.8-0.5,1.1-0.7
	c3.1-1.8,6.2-3.5,9.5-5c1.1-0.5,2.2-1.1,3.4-1.6c3.2-1.5,6.4-2.8,9.7-4c15.7-5.9,32.5-9.3,50.1-9.7c1.2,0,2.3,0,3.5,0
	C161.3,96.5,164.7,96.6,168,96.9z"/>
<g>
	<g>
		<g>
			<g id="Warstwa_2_00000139989506628107989400000007481665577107838910_">
				<g id="full_strona_00000037679531805915194590000017586479718503816615_">
					<path class="st4" d="M189.8,242.7c-0.3,0.2-0.6,0.4-0.9,0.6c0,0-0.1,0.1-0.1,0.1c0,0,0,0,0,0c-0.3,0.2-0.5,0.3-0.8,0.5
						c-0.3,0.2-0.7,0.4-1,0.6c-0.2,0.1-0.5,0.3-0.7,0.4c-0.5,0.3-1,0.5-1.4,0.8c-0.3,0.2-0.7,0.4-1,0.5c-0.3,0.2-0.6,0.3-0.9,0.4
						c-0.4,0.2-0.7,0.4-1.1,0.5c-0.3,0.1-0.5,0.2-0.8,0.3c-0.6,0.3-1.3,0.5-2,0.8c-0.3,0.1-0.6,0.2-0.9,0.3
						c-0.2,0.1-0.4,0.1-0.7,0.2c-0.1,0-0.2,0.1-0.3,0.1c-0.6,0.2-1.2,0.4-1.9,0.5c-0.7,0.2-1.3,0.4-2,0.5c-2.7,0.6-5.3,1-7.9,1.1
						c-2.2,0.1-4.3,0.1-6.3,0c-2.2-0.1-4.3-0.4-6.4-0.7c-0.5-0.1-1-0.2-1.4-0.2c0,0,0,0-0.1,0c-0.6-0.1-1.2-0.2-1.9-0.4
						c-0.6-0.1-1.2-0.3-1.9-0.4c-0.6-0.1-1.1-0.3-1.8-0.4c-0.2-0.1-0.3-0.1-0.5-0.1c-0.4-0.1-0.9-0.2-1.3-0.4
						c-0.4-0.1-0.8-0.2-1.2-0.4c-0.4-0.1-0.8-0.3-1.2-0.4c-0.8-0.3-1.7-0.5-2.4-0.8c-0.4-0.1-0.7-0.3-1.1-0.4
						c-0.4-0.1-0.7-0.3-1.1-0.4c-1-0.4-2.1-0.8-2.9-1.2c-0.5-0.2-1-0.5-1.6-0.7c-1.6-0.7-2.9-1.4-3.9-2.1c0.2-0.1,0.5-0.2,0.8-0.4
						c2.8-1.6,7-5.8,8.9-16.8c0.2-1.1,0.4-2.4,0.5-3.7h0c0.1,0,0.1,0,0.2,0c-0.1-0.3-0.1-0.4-0.1-0.4c0.1-0.8,0.2-1.7,0.3-2.7h39.7
						c0,0.2,0.1,0.4,0.1,0.7c0.2,1.2,0.4,2.5,0.7,3.7c0.2,0.8,0.3,1.6,0.5,2.4c1,4.3,2.3,8.2,4.2,11.5h0c0.4,0.7,0.8,1.3,1.3,2
						c1.1,1.6,2.6,3,4.3,4.1c0.1,0,0.1,0.1,0.2,0.1C189.6,242.6,189.7,242.6,189.8,242.7z"/>
					<path class="st28" d="M206.3,315.5c0,0-2.1-3.8-6.3-2.3c0,0,0.7,0.9,0.7,1.9c0,0-0.4-0.6-1.2-1c0,0,0,0,0,0c0,0,0,0-0.1,0
						c0,0,0,0-0.1,0c-0.1,0-0.2-0.1-0.3-0.1c-0.3-0.1-0.6-0.1-0.8-0.1c-0.1,0-0.2,0-0.4,0c-0.5,0-1.5,0.1-3.3,0.6
						c0,0-2.3,0.5-4.6-0.2c0,0,0.2,0.4,1,1.1c-0.4-0.1-8.4-2.6-5.8-11.1c0,0,3,7.9,9.2-0.6c0,0-0.1,1.4-0.7,2.5
						c1-0.4,5.6-2.1,9.7,1.7c0.8,0.7,1.5,1.7,2,2.9S206.2,313.5,206.3,315.5z"/>
					<path class="st5" d="M228,90c0,0.1-0.1,0.1-0.1,0.2l0,0c0,0,0-0.1-0.1-0.2l0,0l0,0v-0.1C227.8,89.9,227.9,89.9,228,90z"/>
				</g>
			</g>
		</g>
		<rect x="152.5" y="248.1" class="st4" width="20.6" height="10.4"/>
		<path class="st4" d="M192.7,241.3c-0.8,0.5-1.8,1.1-2.9,1.8c-2.2,1.2-4.9,2.6-7.7,3.8l-8.7-2.6c0,0-13.3-22.8-13.4-23.3
			c0-0.1,0.2-1,0.5-2.3h23.2c0.9,2.9,2.7,8,4.6,12.7c0.2,0.6,0.4,1.1,0.6,1.8C190.3,236.5,191.6,239.5,192.7,241.3L192.7,241.3
			L192.7,241.3z"/>
		<path class="st4" d="M192.2,240.6c-0.2-0.1-3.3-1.1-7-2.3c-0.1,0-0.1,0-0.1-0.1h0c-1-0.4-2.1-0.7-3.2-1.1c-4.2-1.5-8.2-3-8.6-3.6
			c-1-1.2-3.6-9.3-3.6-9.3l0.2-0.8l1.2-4.8l0.2-0.7h13.3c0.1,0.8,0.3,1.8,0.5,2.9c0.1,0.3,0.2,0.7,0.3,1c1.6,5.9,5,14.1,6.4,17.3
			c0,0,0,0.1,0.1,0.1C192,240,192.1,240.5,192.2,240.6z"/>
		<path class="st4" d="M228,90c0,0.1-0.1,0.1-0.1,0.2l0,0c0,0,0-0.1-0.1-0.2l0,0l0,0v-0.1C227.8,89.9,227.9,89.9,228,90z"/>
		<path class="st4" d="M187.7,220.1c-0.9,0.3-1.8,0.6-2.7,0.9c-0.1,0-0.3,0.1-0.4,0.1h0c0,0-0.1,0-0.1,0c-0.1,0-0.3,0.1-0.4,0.1
			c-0.1,0-0.3,0.1-0.5,0.1c-0.1,0-0.2,0-0.2,0.1c0,0,0,0,0,0c-0.1,0-0.2,0-0.3,0.1c-0.1,0-0.2,0.1-0.3,0.1c-0.3,0.1-0.5,0.1-0.8,0.2
			c-0.1,0-0.2,0.1-0.3,0.1c-0.1,0-0.1,0-0.2,0c-0.8,0.2-1.6,0.4-2.4,0.5c-0.7,0.1-1.4,0.3-2.2,0.4c0,0-0.1,0-0.1,0
			c-2.2,0.3-4.5,0.6-6.9,0.7c-0.3,0-0.5,0-0.8,0c-1.4,0.1-2.8,0.1-4.2,0.1h-5.4c-3,0-5.9-0.1-8.7-0.4c-1-0.1-1.9-0.2-2.8-0.4
			c-1-0.1-2-0.3-3-0.5c-0.9-0.2-1.7-0.3-2.6-0.6c-0.4-0.1-0.8-0.2-1.2-0.3c-0.4-0.1-0.8-0.2-1.2-0.3h0c0,0,0,0-0.1,0c0,0,0,0-0.1,0
			h0c-0.1,0-0.2,0-0.2-0.1c-0.4-0.1-0.9-0.2-1.3-0.4c0,0,0,0,0,0c-33.9-10.3-43.6-46.3-44.7-80.1c-0.2-4.7-0.1-9.4,0-13.9
			c0-1.2,0.1-2.3,0.1-3.4c0.1-1.7,0.2-3.4,0.3-5.1c1.6-25.1,6.4-44.7,6.4-44.7H224c0,0.3,4.7,19.8,6.2,44.7c0.1,1.7,0.2,3.3,0.3,5
			c0.1,1.1,0.1,2.3,0.1,3.5c0,0.9,0.1,1.8,0.1,2.7C231.4,165.3,223.9,207.9,187.7,220.1z"/>
	</g>
	<path class="st16" d="M98.6,320.9c0,0.5,0,1.2,0,2c0,0.2,0,0.3,0,0.5c0,0.1,0,0.2,0,0.3c0,0.2,0,0.3,0,0.5c0,0.1,0,0.2,0,0.4
		c0,0.2,0,0.3,0,0.5c0,0.3,0,0.6,0,0.9c0,0.2,0,0.4,0,0.6c0,0.1,0,0.3,0,0.4c0,0.2,0,0.4,0,0.6c0,0.6-0.1,1.2-0.1,1.9
		c0,0.4,0,0.8-0.1,1.2c0,0.1,0,0.2,0,0.3c0,0.4,0,0.7-0.1,1.1c0,0,0,0.1,0,0.1c0,0.1,0,0.2,0,0.4c0,0,0,0,0,0c0,0.1,0,0.1,0,0.2
		c0,0.2,0,0.4,0,0.7c0,0.2,0,0.4,0,0.7c0,0.3,0,0.7-0.1,1v0c0,0.1,0,0.2,0,0.2c0,0.2,0,0.3,0,0.5c0,0.5-0.1,1-0.1,1.5
		c0,0.1,0,0.2,0,0.3c0,0.2,0,0.5,0,0.7c0,0.1,0,0.2,0,0.3c0,0.1,0,0.2,0,0.3c0,0.1,0,0.1,0,0.2c0,0.1,0,0.1,0,0.2c0,0.3,0,0.6-0.1,1
		c0,0.1,0,0.1,0,0.2c0,0.1,0,0.1,0,0.2s0,0.1,0,0.2c0,0.1,0,0.3,0,0.4c0,0.2,0,0.5,0,0.8c0,0.2,0,0.3,0,0.5v0c0,0,0,0,0,0v0.1
		c0,0.1,0,0.1,0,0.2c0,0.2,0,0.5,0,0.8c0,0,0,0,0,0v0c0,0,0,0,0,0v0.1c0,0.1,0,0.2,0,0.3c0,0.1,0,0.1,0,0.2c0,0,0,0.1,0,0.2v0
		c0,0,0,0,0,0.1v0.1c0,0.1,0,0.2,0,0.3c0,0.1,0,0.2,0,0.3c0,0,0,0.1,0,0.1c0,0.2,0,0.4,0,0.6c0,0,0,0,0,0c0,0,0,0,0,0.1v0
		c0,0,0,0,0,0.1c0,0.3,0,0.7-0.1,1.1c0,0.3,0,0.7-0.1,1.1c0,0.1,0,0.2,0,0.3c0,0.4,0,0.8-0.1,1.2c0,0.2,0,0.3,0,0.4
		c0,0.2,0,0.4,0,0.7c0,0.3,0,0.6-0.1,0.9c0,0.4-0.1,0.8-0.1,1.2c0,0.4,0,0.7-0.1,1.1c0,0.4-0.1,0.8-0.1,1.2c0,0.4,0,0.7-0.1,1.1
		c0,0,0,0,0,0.1c0,0,0,0.1,0,0.1c0,0,0,0.1,0,0.1c0,0.1,0,0.1,0,0.2c0,0.2,0,0.3,0,0.5c0,0.1,0,0.2,0,0.2c0,0.3,0,0.6-0.1,1v0
		c0,0.1,0,0.2,0,0.2c0,0.2,0,0.4,0,0.6c0,0.2,0,0.4,0,0.6c0,0,0,0,0,0.1c0,0.1,0,0.1,0,0.2c0,0.3,0,0.5,0,0.8c0,0,0,0,0,0.1
		c0,0,0,0,0,0.1c0,0.1,0,0.2,0,0.3c0,0.1,0,0.2,0,0.3c0,0.3,0,0.5-0.1,0.8c0,0.5-0.1,1.1-0.1,1.6c0,0.1,0,0.2,0,0.2
		c0,0.2,0,0.4,0,0.6c0,0.2,0,0.4,0,0.6c0,0.4,0,0.7-0.1,1.1c0,0,0,0.1,0,0.1c0,0,0,0,0,0.1c0,0.2,0,0.4,0,0.7c0,0.3,0,0.5-0.1,0.8
		c0,0.5-0.1,1.1-0.1,1.6c0,0.5-0.1,0.9-0.1,1.4c0,0.5-0.1,1-0.1,1.5c0,0.1,0,0.2,0,0.3c0,0.5-0.1,1-0.1,1.5c0,0.1,0,0.2,0,0.3
		c0,0.2,0,0.4,0,0.6c0,0,0,0.1,0,0.1c0,0.1,0,0.3,0,0.5c0,0.2,0,0.4,0,0.5c0,0.3,0,0.6-0.1,0.9c0,0.4-0.1,0.7-0.1,1.1
		c-0.1,1-0.1,2-0.2,2.9c0,0.1,0,0.1,0,0.2c-0.1,0.9-0.1,1.7-0.2,2.5c0,0.1,0,0.2,0,0.2c0,0.2,0,0.5,0,0.7c0,0.2,0,0.4,0,0.6
		c0,0.1,0,0.2,0,0.3c0,0.1,0,0.1,0,0.2c0,0.4-0.1,0.7-0.1,1.1c0,0.1,0,0.1,0,0.2c-0.1-0.1-0.2-0.1-0.3-0.2c-0.4-0.2-0.7-0.3-1.1-0.5
		c-1.4-0.6-2.7-1.3-4-2h0c0,0,0,0,0,0c0,0,0,0,0,0c0-0.1,0-0.3,0-0.4c0-0.3,0-0.6,0.1-0.9c0-0.1,0-0.3,0-0.4c0-0.7,0.1-1.5,0.2-2.3
		c0-0.4,0-0.8,0.1-1.2c0-0.4,0.1-0.8,0.1-1.2c0-0.1,0-0.1,0-0.2v-0.1c0,0,0-0.1,0-0.1c0-0.2,0-0.4,0-0.6v0c0,0,0,0,0,0
		c0-0.1,0-0.2,0-0.2c0-0.4,0.1-0.9,0.1-1.3c0-0.1,0-0.2,0-0.3c0-0.1,0-0.2,0-0.3v0c0,0,0,0,0,0v-0.1c0-0.2,0-0.4,0-0.7
		c0-0.1,0-0.1,0-0.2c0-0.1,0-0.2,0-0.2c0-0.1,0-0.3,0-0.4c0-0.6,0.1-1.1,0.1-1.7c0-0.6,0.1-1.1,0.1-1.7l0-0.4c0-0.1,0-0.1,0-0.2
		c0-0.2,0-0.5,0.1-0.7c0-0.2,0-0.5,0.1-0.7c0,0,0,0,0,0c0-0.2,0-0.5,0.1-0.7c0,0,0-0.1,0-0.1c0-0.2,0-0.4,0.1-0.6c0-0.1,0-0.1,0-0.2
		c0-0.1,0-0.2,0-0.4c0.1-1,0.2-2.1,0.3-3.1c0-0.5,0.1-1,0.1-1.5c0-0.1,0-0.1,0-0.2c0-0.4,0.1-0.7,0.1-1.1c0-0.1,0-0.1,0-0.2
		c0.1-0.8,0.2-1.6,0.3-2.4v0c0-0.2,0-0.4,0.1-0.6l0.2-1.5c0.1-1,0.2-2.1,0.4-3.1c0.1-1.1,0.3-2.2,0.4-3.2c0-0.1,0-0.2,0-0.3
		c0.1-0.7,0.2-1.3,0.3-1.9c0.1-0.5,0.2-1,0.2-1.6c0.2-1.1,0.3-2.1,0.5-3.2c0.1-0.5,0.2-1,0.3-1.6c0.1-0.5,0.2-1,0.3-1.5
		c0,0,0-0.1,0-0.1c0,0,0-0.1,0-0.1c0.1-0.6,0.2-1.2,0.3-1.8c0.1-0.4,0.1-0.8,0.2-1.1c0.2-0.7,0.3-1.5,0.5-2.2
		c0.2-0.7,0.3-1.4,0.5-2.1c0.2-1,0.5-2,0.8-3c0.1-0.3,0.2-0.6,0.3-1c0.1-0.3,0.2-0.6,0.3-0.9c0.1-0.3,0.2-0.6,0.3-0.9
		c0.1-0.3,0.2-0.6,0.3-0.9c0.2-0.6,0.4-1.1,0.6-1.7c0.1-0.3,0.2-0.6,0.3-0.8c0.1-0.3,0.2-0.5,0.3-0.8
		C98.4,321.4,98.5,321.1,98.6,320.9z"/>
	<path class="st16" d="M216.9,248.9C216.9,248.9,216.8,248.9,216.9,248.9c-0.1,0.2-0.2,0.3-0.3,0.4c0,0-0.1,0.1-0.1,0.1
		c0,0,0,0.1,0,0.1c-1,1-2.4,1.7-3.8,2.1c0,0,0,0,0,0c0,0,0,0,0,0h0c-0.1,0-0.2,0.1-0.3,0.1h0c0,0,0,0,0,0c-0.1,0-0.1,0-0.2,0
		c0,0-0.1,0-0.1,0c-0.1,0-0.1,0-0.1,0c0,0,0,0,0,0h0c-0.1,0-0.2,0-0.3,0.1c-0.3,0.1-0.5,0.1-0.8,0.2c0,0-0.1,0-0.1,0
		c0,0-0.1,0-0.1,0c0,0-0.1,0-0.1,0c0,0-0.1,0-0.1,0c-0.1,0-0.2,0-0.2,0c0,0-0.1,0-0.1,0c0,0,0,0-0.1,0c0,0-0.1,0-0.1,0c0,0,0,0,0,0
		l0,0c0,0,0,0-0.1,0c0,0,0,0-0.1,0c0,0,0,0,0,0c0,0-0.1,0-0.1,0c0,0,0,0,0,0c-0.1,0-0.2,0-0.2,0s0,0,0,0c0,0-0.1,0-0.2,0
		c-0.3,0-0.9,0.1-1.9,0.3c-0.3,0.1-0.6,0.1-1,0.2c-0.5,0.1-1,0.2-1.5,0.3c-0.4,0.1-0.9,0.2-1.3,0.3c-0.5,0.1-1,0.2-1.5,0.3
		c-0.4,0.1-0.9,0.2-1.4,0.3c-1.6,0.4-3.5,0.9-5.5,1.4c-0.5,0.1-1,0.3-1.6,0.4c-0.5,0.1-0.9,0.3-1.4,0.4c-0.5,0.1-0.9,0.3-1.4,0.4
		c-0.4,0.1-0.7,0.2-1.1,0.3c-0.6,0.2-1.2,0.4-1.8,0.6c-0.4,0.1-0.7,0.2-1.1,0.4c-0.2,0.1-0.3,0.1-0.5,0.2c-0.3,0.2-0.6,0.3-0.9,0.4
		c-0.2,0.1-0.4,0.2-0.5,0.2c0,0-0.1,0-0.1,0c-0.1,0-0.1,0-0.1,0.1c-0.2,0.1-0.3,0.2-0.5,0.2c-0.1,0-0.2,0.1-0.3,0.1l-0.5,0.2h0
		c0,0-0.1,0-0.1,0c0,0-0.1,0-0.1,0c-0.1,0-0.1,0-0.2,0.1c-0.2,0.1-0.3,0.1-0.5,0.2c-0.1,0-0.1,0-0.2,0.1c-0.1,0-0.3,0.1-0.4,0.2
		c0,0-0.1,0-0.1,0c0,0,0,0,0,0c-0.2,0.1-0.5,0.2-0.7,0.2c-0.1,0-0.2,0.1-0.3,0.1c-0.4,0.1-0.7,0.2-1.1,0.3c-0.1,0-0.2,0.1-0.3,0.1
		c-0.1,0-0.2,0.1-0.3,0.1c-0.1,0-0.2,0-0.2,0.1v0c-0.1,0-0.2,0.1-0.3,0.1c-0.1,0-0.1,0-0.2,0c-0.2,0-0.4,0.1-0.5,0.1
		c-0.1,0-0.3,0.1-0.4,0.1c0,0,0,0,0,0c-0.1,0-0.3,0.1-0.4,0.1c-0.1,0-0.3,0.1-0.4,0.1c-0.1,0-0.2,0-0.3,0.1c0,0,0,0-0.1,0
		c0,0-0.1,0-0.1,0c-0.2,0-0.4,0.1-0.5,0.1c-0.1,0-0.2,0-0.3,0.1c-0.1,0-0.2,0-0.3,0.1l-1,0.2c-0.3,0.1-0.6,0.1-0.9,0.2
		c-0.3,0-0.7,0.1-1,0.2c-0.1,0-0.3,0-0.4,0c-0.2,0-0.4,0-0.6,0.1h0v65.9h0c0,0,0.1,0,0.2,0.1c0.1,0,0.2,0.1,0.3,0.2
		c0,0,0.1,0,0.1,0.1c0.1,0,0.1,0.1,0.2,0.2c0,0,0,0,0.1,0.1c0,0,0,0,0,0c0,0,0,0,0,0c0,0,0,0,0,0h0c0,0,0,0,0,0s0,0,0,0
		c0,0,0.1,0.1,0.1,0.1c0.1,0.1,0.1,0.2,0.2,0.3c0,0,0,0.1,0.1,0.1c0,0,0,0.1,0,0.1c0,0.1,0.1,0.1,0.1,0.2c0,0,0,0,0,0.1
		c0,0.1,0.1,0.1,0.1,0.2c0,0,0,0,0,0c0,0,0,0.1,0,0.1c0,0,0,0.1,0,0.1c0,0,0,0.1,0,0.1v0c0,0.1,0,0.1,0,0.2c0,0.1,0,0.1,0,0.2v3.4
		c0,0,0,0.1,0,0.1c0,0.1,0,0.2,0,0.2c0,0,0,0,0,0.1c0,0,0,0,0,0c0,0.1,0,0.2-0.1,0.2c0,0.1-0.1,0.3-0.1,0.4s-0.1,0.2-0.2,0.4
		c0,0,0,0,0,0c-0.1,0.1-0.2,0.3-0.3,0.4h0c0,0,0,0-0.1,0.1c0,0,0,0,0,0c0,0,0,0,0,0c0,0,0,0-0.1,0.1c-0.2,0.1-0.3,0.2-0.5,0.3
		c0,0-0.1,0-0.1,0c0,0-0.1,0-0.1,0c-0.1,0-0.1,0.1-0.2,0.1c0,0,0,0,0,0c-0.1,0-0.2,0.1-0.4,0.1c-0.1,0-0.1,0-0.2,0h0
		c-0.1,0-0.2,0-0.3,0c0,0-0.1,0-0.1,0c0,0-0.1,0-0.1,0c0,0,0,0,0,0c-0.2,0-0.4-0.1-0.5-0.1c0,0,0,0,0,0c-0.1,0-0.2-0.1-0.3-0.1
		c0,0,0,0,0,0h0c0,0,0,0,0,0c0,0,0,0-0.1,0c-0.1,0-0.2-0.1-0.4-0.2c-0.1,0-0.2-0.1-0.2-0.1c0,0,0,0,0,0c-0.1-0.1-0.1-0.1-0.2-0.2
		c-0.2-0.2-0.4-0.4-0.5-0.7c0,0,0-0.1-0.1-0.1c0-0.1,0-0.1-0.1-0.2c0,0,0,0,0,0c0-0.1-0.1-0.1-0.1-0.2c0-0.1,0-0.2-0.1-0.3
		c0-0.2-0.1-0.4-0.1-0.6v-3.2c0,0,0-0.1,0-0.1c0-0.2,0-0.4,0.1-0.6c0,0,0-0.1,0-0.1c0-0.1,0-0.1,0.1-0.2c0-0.1,0.1-0.1,0.1-0.2
		c0,0,0-0.1,0.1-0.1c0-0.1,0-0.1,0.1-0.1c0.1-0.1,0.2-0.2,0.2-0.3c0,0,0,0,0,0c0.1-0.1,0.2-0.2,0.3-0.3c0.1-0.1,0.2-0.1,0.2-0.2
		c0,0,0.1-0.1,0.1-0.1v0c0,0,0,0,0,0h0l0,0c0,0,0,0,0,0c0,0,0,0,0,0c0,0,0,0,0,0v0c0,0,0,0,0,0s0,0,0.1,0c0,0,0,0,0,0c0,0,0,0,0.1,0
		V263c0,0-0.1,0-0.1,0c-0.4,0-0.8,0.1-1.1,0.1c-0.2,0-0.5,0-0.8,0h0c-0.8,0-1.5,0.1-2.3,0.1c-0.7,0-1.4,0-2,0c-1.4,0-2.9,0-4.4-0.1
		c-0.5,0-1,0-1.5-0.1c-0.3,0-0.7,0-1-0.1c-0.2,0-0.3,0-0.5,0c-0.2,0-0.5,0-0.7-0.1v60.4c0.1,0,0.2,0.1,0.3,0.2l0,0c0,0,0,0,0,0
		s0,0,0,0c0.1,0,0.1,0.1,0.2,0.2c0.1,0.1,0.2,0.2,0.3,0.2c0.1,0.1,0.1,0.1,0.2,0.2c0.1,0.1,0.2,0.3,0.3,0.4c0.1,0.2,0.2,0.3,0.2,0.5
		v0c0.1,0.2,0.1,0.4,0.1,0.5c0,0,0,0.1,0,0.2v3.3c0,0,0,0.1,0,0.1c0,0.1,0,0.1,0,0.2c0,0.1,0,0.1,0,0.2c0,0,0,0.1,0,0.1
		c0,0.1,0,0.2-0.1,0.2c0,0,0,0,0,0.1c0,0.1-0.1,0.2-0.1,0.3c0,0,0,0.1-0.1,0.1c0,0.1-0.1,0.1-0.1,0.1v0c-0.1,0.1-0.1,0.2-0.2,0.3v0
		l0,0c-0.1,0.1-0.2,0.2-0.3,0.3h0c-0.1,0.1-0.2,0.1-0.3,0.2c-0.1,0.1-0.2,0.2-0.4,0.2c0,0,0,0-0.1,0c0,0,0,0-0.1,0
		c-0.1,0-0.1,0-0.2,0.1c-0.1,0-0.2,0.1-0.3,0.1c-0.1,0-0.2,0-0.2,0c0,0-0.1,0-0.1,0c0,0-0.1,0-0.1,0c-0.1,0-0.2,0-0.4,0
		c-0.2,0-0.3,0-0.5-0.1c-0.1,0-0.2-0.1-0.3-0.1c0,0,0,0,0,0h0c-0.1-0.1-0.3-0.1-0.4-0.2c-0.1-0.1-0.2-0.1-0.3-0.2h0l-0.3-0.3
		c0,0,0,0,0,0v0c0,0-0.1-0.1-0.1-0.1c0,0,0,0,0-0.1c0,0,0-0.1-0.1-0.1v0h0c0,0-0.1-0.1-0.1-0.1c0,0-0.1-0.1-0.1-0.1
		c-0.1-0.1-0.1-0.2-0.1-0.3c0,0,0,0,0-0.1c0,0,0-0.1,0-0.1c0-0.1-0.1-0.2-0.1-0.3c0-0.1,0-0.1,0-0.2c0-0.1,0-0.1,0-0.2
		c0-0.1,0-0.2,0-0.3v-3c0-0.1,0-0.2,0-0.3c0,0,0,0,0,0v0c0,0,0,0,0,0v0c0-0.1,0-0.2,0.1-0.4c0-0.1,0.1-0.2,0.1-0.3c0,0,0,0,0,0
		c0,0,0,0,0,0c0-0.1,0.1-0.2,0.2-0.3c0.1-0.1,0.2-0.2,0.2-0.3c0.2-0.2,0.4-0.4,0.6-0.5c0.1-0.1,0.2-0.1,0.4-0.2v-60.7
		c-1-0.1-2-0.3-3-0.5c-0.2,0-0.3-0.1-0.5-0.1c-0.2,0-0.3-0.1-0.5-0.1c-0.5-0.1-1-0.2-1.6-0.4c-0.4-0.1-0.8-0.2-1.2-0.3
		c-0.4-0.1-0.8-0.2-1.1-0.3c-0.4-0.1-0.8-0.2-1.1-0.4c-0.7-0.2-1.4-0.5-2.1-0.8c-0.2-0.1-0.4-0.2-0.6-0.2c-0.9-0.4-1.7-0.8-2.6-1.2
		c-0.4-0.1-0.8-0.3-1.3-0.4c-0.9-0.3-1.8-0.6-2.7-0.8c-0.4-0.1-0.8-0.3-1.3-0.4c-0.4-0.1-0.7-0.2-1.1-0.3c-0.6-0.2-1.2-0.3-1.7-0.5
		c-1.8-0.5-3.5-0.9-5-1.3c-0.4-0.1-0.8-0.2-1.2-0.3c-0.8-0.2-1.6-0.4-2.4-0.5c-0.5-0.1-0.9-0.2-1.4-0.3c-0.2,0-0.4-0.1-0.6-0.1
		c-0.4-0.1-0.7-0.1-1.1-0.2c-0.2,0-0.4-0.1-0.6-0.1c-0.2,0-0.3-0.1-0.5-0.1c-0.2,0-0.4-0.1-0.6-0.1c-0.5-0.1-0.8-0.1-1-0.2
		c-0.1,0-0.2,0-0.3,0c-0.1,0-0.1,0-0.1,0s-3.5-0.5-6-2.1c0,0,0.1,0,0.1-0.1c7.4-3.1,12.5-5.4,15.6-8c0.7-0.6,1.3-1.2,1.8-1.9
		c0,0,0,0,0.1,0c0.2,0.1,1.1,0.6,2.5,1.2h0c3.1,1.4,8.8,3.8,16.1,5.6v13.1h32.3v-12.5c1.3-0.3,2.7-0.7,4-1.2c0,0,0,0,0,0
		c1.6-0.6,3.2-1.2,4.8-1.9c0.9-0.4,1.8-0.8,2.6-1.3c0,0,0,0,0.1,0c0,0,0,0,0,0s0,0,0,0c0.1,0,0.1-0.1,0.2-0.1
		c1.2-0.7,2.4-1.4,3.6-2.1h0c0.4-0.3,0.8-0.5,1.2-0.8c0.6,0.2,1.8,0.6,3.6,1.1c1.1,0.3,2.4,0.7,3.8,1.2
		C205.4,244,210.9,246,216.9,248.9z"/>
	<path class="st16" d="M192.3,305.9c0.2-0.2,0.5-0.5,0.7-0.8C192.8,305.4,192.6,305.7,192.3,305.9z"/>
	<path class="st16" d="M233.4,349.5l-2,2.8v0l-0.3,0.5l-0.9,1.3l-3.4,4.8c0,0,0,0.3,0.1,0.9c0,0.1,0,0.2,0,0.4
		c0.1,0.5,0.1,1,0.2,1.7v0c0,0.4,0.1,0.8,0.2,1.3c0,0.2,0.1,0.5,0.1,0.7c0.1,1,0.2,2,0.4,3.2c0.5,4.7,1.2,10.7,1.8,16.8
		c-0.4,0.2-0.9,0.5-1.3,0.7c-1.5,0.8-3,1.5-4.5,2.2c-0.6,0.3-1.3,0.6-1.9,0.9c-6,2.8-12.2,5.2-18.6,7.2c-0.9,0.3-1.8,0.6-2.8,0.8
		c-2.2,0.7-4.5,1.3-6.8,1.8c-3.7,0.9-7.4,1.6-11.2,2.2c-8,1.3-16.3,2-24.6,2c-1.6,0-3.1,0-4.7-0.1c-8.4-0.2-16.7-1.2-24.7-2.8
		c-0.9-0.2-1.9-0.4-2.8-0.6c-5-1.1-10-2.4-14.8-4c-5.7-1.8-11.3-4-16.7-6.5c0-0.1,0-0.1,0-0.2c0-0.3,0-0.7,0.1-1.1
		c0-0.1,0-0.1,0-0.2c0-0.1,0-0.2,0-0.3c0-0.4,0-0.8,0.1-1.2c0-0.1,0-0.2,0-0.2c0,0,0-0.1,0-0.1c0-0.8,0.1-1.6,0.2-2.5
		c0-0.1,0-0.1,0-0.2c0.1-0.9,0.1-1.9,0.2-2.9c0-0.4,0-0.7,0.1-1.1c0-0.3,0-0.6,0.1-0.9c0-0.2,0-0.4,0-0.5c0-0.1,0-0.3,0-0.5
		c0-0.1,0-0.1,0-0.1c0-0.2,0-0.4,0-0.6c0-0.1,0-0.2,0-0.3c0-0.5,0.1-1,0.1-1.5c0-0.1,0-0.2,0-0.3c0-0.5,0.1-1,0.1-1.5
		c0-0.5,0.1-0.9,0.1-1.4c0-0.5,0.1-1.1,0.1-1.6c0-0.3,0-0.5,0.1-0.8c0-0.2,0-0.4,0-0.7c0,0,0,0,0-0.1c0,0,0-0.1,0-0.1
		c0-0.3,0-0.7,0.1-1c0,0,0,0,0-0.1c0-0.2,0-0.4,0-0.6c0-0.2,0-0.4,0-0.6c0-0.1,0-0.2,0-0.2c0-0.3,0-0.6,0.1-0.8c0,0,0,0,0-0.1
		c0-0.2,0-0.5,0.1-0.7c0-0.3,0-0.6,0.1-0.8c0-0.1,0-0.2,0-0.3c0-0.1,0-0.2,0-0.3c0,0,0,0,0-0.1c0,0,0,0,0-0.1c0-0.3,0-0.5,0-0.8
		c0-0.1,0-0.1,0-0.2c0,0,0-0.1,0-0.1c0-0.2,0-0.4,0-0.6c0-0.2,0-0.4,0-0.6c0-0.1,0-0.2,0-0.2v0c0-0.3,0-0.6,0.1-1c0-0.1,0-0.1,0-0.2
		c0-0.2,0-0.3,0-0.5c0-0.1,0-0.1,0-0.2c0,0,0-0.1,0-0.1v-0.1c0,0,0,0,0-0.1c0-0.4,0-0.7,0.1-1.1c0-0.4,0.1-0.8,0.1-1.2
		c0-0.4,0-0.7,0.1-1.1c0-0.4,0.1-0.8,0.1-1.2c0-0.3,0-0.6,0.1-0.9c0-0.2,0-0.4,0-0.7c0-0.1,0-0.3,0-0.4c0-0.4,0.1-0.8,0.1-1.2
		c0-0.1,0-0.2,0-0.3c0-0.4,0-0.7,0.1-1.1c0-0.4,0.1-0.7,0.1-1.1c0,0,0,0,0-0.1v0c0,0,0,0,0-0.1c0,0,0,0,0,0c0-0.2,0-0.4,0-0.6
		c0,0,0-0.1,0-0.1c0-0.1,0-0.2,0-0.3c0-0.1,0-0.2,0-0.3v-0.1c0,0,0,0,0-0.1v-0.1c0,0,0,0,0-0.1c0,0,0-0.1,0-0.2c0-0.1,0-0.2,0-0.3
		c0,0,0-0.1,0-0.1v0c0,0,0,0,0,0c0-0.3,0-0.5,0-0.8c0,0,0-0.1,0-0.2c0,0,0-0.1,0-0.1v0c0-0.2,0-0.3,0-0.5c0-0.2,0-0.5,0-0.8
		c0-0.1,0-0.3,0-0.4c0-0.1,0-0.1,0-0.2c0-0.1,0-0.1,0-0.2c0-0.1,0-0.2,0-0.2c0-0.3,0-0.7,0.1-1c0-0.1,0-0.1,0-0.2c0-0.1,0-0.1,0-0.2
		c0-0.1,0-0.2,0-0.3c0-0.1,0-0.2,0-0.3c0,0,0,0,0,0c0-0.2,0-0.5,0-0.7c0-0.1,0-0.2,0-0.3c0-0.5,0.1-1,0.1-1.5c0-0.1,0-0.3,0-0.5
		c0-0.1,0-0.2,0-0.2v0c0-0.1,0-0.1,0-0.2c0-0.1,0-0.3,0-0.4c0-0.1,0-0.3,0-0.4c0-0.2,0-0.5,0-0.7c0-0.3,0-0.6,0.1-0.9
		c0-0.1,0-0.3,0-0.4c0,0,0-0.1,0-0.1c0-0.4,0-0.8,0.1-1.1c0-0.1,0-0.2,0-0.3c0-0.4,0-0.8,0.1-1.2c0-0.7,0.1-1.3,0.1-1.9
		c0-0.2,0-0.4,0-0.6c0-0.1,0-0.3,0-0.4c0-0.2,0-0.4,0-0.6c0-0.3,0-0.6,0-0.9c0-0.2,0-0.3,0-0.5c0-0.1,0-0.3,0-0.4c0-0.2,0-0.3,0-0.5
		c0-0.1,0-0.2,0-0.3c0-0.2,0-0.3,0-0.5c0-0.8,0-1.5,0-2c-0.1,0.2-0.2,0.5-0.3,0.7c-0.1,0.2-0.2,0.5-0.3,0.8
		c-0.1,0.3-0.2,0.6-0.3,0.8c-0.2,0.5-0.4,1.1-0.6,1.7c-0.1,0.3-0.2,0.6-0.3,0.9c-0.1,0.3-0.2,0.6-0.3,0.9c-0.1,0.3-0.2,0.6-0.3,0.9
		c-0.1,0.3-0.2,0.6-0.3,1c-0.3,1-0.5,2-0.8,3c-0.2,0.7-0.3,1.4-0.5,2.1c-0.2,0.7-0.3,1.5-0.5,2.2c-0.1,0.4-0.1,0.8-0.2,1.1
		c-0.1,0.6-0.2,1.2-0.3,1.8c0,0,0,0.1,0,0.1c0,0,0,0.1,0,0.1c-0.1,0.5-0.2,1-0.3,1.5c-0.1,0.5-0.2,1-0.3,1.6c-0.1,0.5-0.2,1-0.3,1.5
		c-0.1,0.5-0.2,1.1-0.2,1.6c-0.1,0.5-0.1,1-0.2,1.6c-0.1,0.6-0.2,1.3-0.3,1.9c0,0.1,0,0.2,0,0.3c-0.1,1.1-0.3,2.1-0.4,3.2
		c-0.1,1-0.3,2.1-0.4,3.1l-0.2,1.5c0,0.2,0,0.4-0.1,0.6v0c-0.1,0.8-0.2,1.6-0.3,2.4c0,0.1,0,0.1,0,0.2c0,0.4-0.1,0.8-0.1,1.2
		c0,0.1,0,0.2,0,0.2c0,0.5-0.1,0.9-0.1,1.4c-0.1,1.1-0.2,2.1-0.3,3.1c0,0.1,0,0.3,0,0.4c-0.1,0.6-0.1,1.1-0.2,1.7c0,0,0,0,0,0
		c0,0.5-0.1,1-0.1,1.5c0,0.1,0,0.1,0,0.2l0,0.4c0,0.6-0.1,1.2-0.1,1.7c0,0.6-0.1,1.1-0.1,1.7c0,0.1,0,0.3,0,0.4c0,0.1,0,0.2,0,0.2
		c0,0.1,0,0.1,0,0.2c0,0.2,0,0.5,0,0.7v0.1c0,0.1,0,0.2,0,0.3c0,0.1,0,0.2,0,0.3c0,0.4-0.1,0.9-0.1,1.3c0,0.1,0,0.1,0,0.2
		c0,0.3,0,0.6-0.1,0.9c0,0.1,0,0.1,0,0.2c0,0.4-0.1,0.8-0.1,1.2c0,0.4,0,0.8-0.1,1.2c0,0.8-0.1,1.5-0.2,2.3c0,0.2,0,0.3,0,0.4
		c0,0.3,0,0.6-0.1,0.9c0,0.1,0,0.3,0,0.4c0,0,0,0,0,0v0h0c-0.1,0-0.2-0.1-0.2-0.1c-0.3-0.1-0.6-0.3-0.8-0.4
		c-0.7-0.4-1.4-0.7-2.1-1.1c-4.5-2.4-8.9-5.1-13.1-8c-5.3-3.6-10.4-7.6-15.3-11.8c-1.5-1.3-3-2.7-4.5-4.1v-5.9
		c0.5-6.2,1-12.1,1.6-17.2v-0.1c0-0.1,0-0.3,0-0.4c0-0.5,0-1.1,0.1-1.8c0-0.2,0-0.3,0-0.5c0-0.2,0-0.5,0.1-0.8c0-0.2,0-0.4,0-0.6
		c0-0.2,0-0.3,0-0.5c0.1-1.3,0.3-2.8,0.5-4.4c0-0.3,0.1-0.6,0.1-0.9c0-0.3,0.1-0.6,0.1-1c0-0.3,0.1-0.6,0.1-0.9
		c0.1-0.6,0.2-1.2,0.3-1.8c0-0.3,0.1-0.6,0.2-1c0.2-1.2,0.4-2.5,0.7-3.8v-0.1c0,0,0,0,0,0v-0.2c0.6-3.2,1.4-6.6,2.4-10.1
		c5.1-18.8,15.1-41.2,34.7-50.9l0,0c0,0,0.1,0,0.2-0.1c1.5-0.8,3.1-1.4,4.8-2c3.8-1.7,7.2-3.1,10.2-4.4c0,0,0,0,0,0
		c2.5,1.6,6,2.1,6,2.1s0,0,0.1,0c0.1,0,0.2,0,0.3,0c0.2,0,0.6,0.1,1,0.2c0.2,0,0.4,0.1,0.6,0.1c0,0,0.1,0,0.1,0c0.1,0,0.2,0,0.3,0.1
		c0.2,0,0.4,0.1,0.6,0.1c0.3,0.1,0.7,0.1,1.1,0.2c0.2,0,0.4,0.1,0.6,0.1c0.4,0.1,0.9,0.2,1.4,0.3c0.7,0.2,1.5,0.3,2.4,0.5
		c0.4,0.1,0.8,0.2,1.2,0.3c1.5,0.4,3.2,0.8,5,1.3c0.6,0.2,1.1,0.3,1.7,0.5c0.4,0.1,0.7,0.2,1.1,0.3c0.4,0.1,0.8,0.2,1.3,0.4
		c0.9,0.3,1.7,0.5,2.7,0.8c0.4,0.1,0.8,0.3,1.3,0.4c0.8,0.4,1.6,0.8,2.4,1.1c0.1,0,0.1,0.1,0.2,0.1c0.2,0.1,0.4,0.2,0.6,0.2
		c0.6,0.2,1.2,0.5,1.9,0.7c0.1,0,0.2,0.1,0.2,0.1c0.4,0.1,0.8,0.3,1.1,0.4c0.4,0.1,0.8,0.2,1.1,0.3c0.4,0.1,0.8,0.2,1.2,0.3
		c0.5,0.1,1,0.3,1.6,0.4c0.1,0,0.3,0.1,0.5,0.1c0.1,0,0.3,0.1,0.5,0.1c0.2,0,0.3,0.1,0.5,0.1c0.2,0.1,0.5,0.1,0.8,0.2
		c0.6,0.1,1.1,0.2,1.7,0.3v60.7c-0.1,0-0.2,0.1-0.4,0.2c-0.2,0.1-0.5,0.3-0.6,0.5c-0.1,0.1-0.2,0.2-0.2,0.3
		c-0.1,0.1-0.1,0.2-0.2,0.3c0,0,0,0,0,0c0,0,0,0,0,0c-0.1,0.1-0.1,0.2-0.1,0.3c0,0.1-0.1,0.2-0.1,0.4v0c0,0,0,0.1,0,0.1c0,0,0,0,0,0
		c0,0,0,0,0,0.1c0,0.1,0,0.2,0,0.3v3c0,0.1,0,0.2,0,0.3c0,0.1,0,0.1,0,0.2c0,0.1,0,0.1,0,0.2c0,0.1,0,0.2,0.1,0.3c0,0,0,0.1,0,0.1
		c0,0,0,0,0,0.1c0,0.1,0.1,0.2,0.1,0.3c0,0,0,0.1,0.1,0.1c0,0.1,0.1,0.1,0.1,0.1v0c0,0,0.1,0.1,0.1,0.1c0,0,0,0,0,0.1
		c0,0,0.1,0.1,0.1,0.1v0c0,0,0,0,0,0v0l0.3,0.3h0c0.1,0.1,0.2,0.2,0.3,0.2c0.1,0.1,0.2,0.1,0.4,0.2h0c0,0,0,0,0,0
		c0.1,0,0.2,0.1,0.3,0.1c0.1,0,0.3,0.1,0.5,0.1c0.1,0,0.3,0,0.4,0h0.1c0,0,0.1,0,0.1,0c0.1,0,0.2,0,0.2,0c0.1,0,0.2,0,0.3-0.1
		c0.1,0,0.1,0,0.2-0.1c0,0,0,0,0.1,0c0,0,0,0,0.1,0c0.1-0.1,0.3-0.1,0.4-0.2c0.1-0.1,0.2-0.1,0.3-0.2h0c0.1-0.1,0.2-0.2,0.3-0.3v0
		c0,0,0,0,0,0v0c0.1-0.1,0.1-0.2,0.2-0.3v0c0,0,0.1-0.1,0.1-0.1c0,0,0-0.1,0.1-0.1c0-0.1,0.1-0.2,0.1-0.3c0,0,0,0,0-0.1
		c0-0.1,0-0.2,0.1-0.2c0,0,0-0.1,0-0.1c0-0.1,0-0.1,0-0.2c0-0.1,0-0.1,0-0.2c0,0,0-0.1,0-0.1v-3.3c0-0.1,0-0.1,0-0.2
		c0-0.2-0.1-0.4-0.1-0.5v0c0-0.2-0.1-0.4-0.2-0.5c-0.1-0.2-0.2-0.3-0.3-0.4c-0.1-0.1-0.1-0.1-0.2-0.2c-0.1-0.1-0.2-0.2-0.3-0.3
		c-0.1,0-0.1-0.1-0.2-0.2c0,0,0,0,0,0s0,0,0,0l0,0c-0.1-0.1-0.2-0.1-0.3-0.2v-60.4c0.2,0,0.4,0.1,0.7,0.1c0,0,0,0,0,0
		c0.2,0,0.3,0,0.5,0c0.3,0,0.7,0.1,1,0.1c0.5,0,1,0.1,1.5,0.1c1.5,0.1,2.9,0.1,4.4,0c0.7,0,1.3,0,2,0c0.8,0,1.5,0,2.3-0.1h0
		c0.2,0,0.5,0,0.8,0c0.4,0,0.8-0.1,1.1-0.1c0,0,0.1,0,0.1,0h0v65.7h0v0c0,0,0,0-0.1,0c0,0,0,0,0,0c0,0,0,0-0.1,0s0,0,0,0v0
		c0,0,0,0,0,0c0,0,0,0,0,0c0,0,0,0,0,0l0,0h0c0,0,0,0,0,0c0,0-0.1,0.1-0.1,0.1c-0.1,0-0.1,0.1-0.2,0.1c0,0,0,0-0.1,0.1
		c-0.1,0.1-0.2,0.2-0.3,0.3c0,0,0,0,0,0c-0.1,0.1-0.2,0.2-0.2,0.3c0,0,0,0.1-0.1,0.1c0,0,0,0.1-0.1,0.1c0,0.1-0.1,0.1-0.1,0.2
		c0,0.1-0.1,0.1-0.1,0.2c0,0,0,0.1,0,0.1c-0.1,0.2-0.1,0.4-0.1,0.6v3.3c0,0.1,0,0.2,0,0.2c0,0.1,0,0.1,0,0.2c0,0.1,0,0.2,0.1,0.3
		c0,0.1,0.1,0.2,0.1,0.2c0,0.1,0,0.1,0.1,0.2c0,0.1,0,0.1,0.1,0.1c0.1,0.2,0.3,0.5,0.5,0.7c0.1,0.1,0.1,0.1,0.2,0.2c0,0,0,0,0,0
		c0.1,0.1,0.1,0.1,0.2,0.2c0.1,0,0.1,0.1,0.2,0.1c0.1,0,0.1,0.1,0.2,0.1c0,0,0,0,0,0h0c0,0,0,0,0,0v0c0.1,0,0.2,0.1,0.3,0.1
		c0,0,0,0,0,0c0.2,0.1,0.3,0.1,0.5,0.1c0,0,0.1,0,0.1,0c0,0,0,0,0.1,0h0.1c0.1,0,0.1,0,0.2,0c0,0,0.1,0,0.2,0c0.1,0,0.1,0,0.2,0
		c0.1,0,0.2,0,0.4-0.1c0,0,0,0,0,0c0.1,0,0.1,0,0.2-0.1c0,0,0.1,0,0.1,0c0,0,0.1,0,0.1,0c0.2-0.1,0.3-0.2,0.5-0.3c0,0,0-0.1,0.1-0.1
		c0,0,0,0,0,0c0,0,0,0,0,0h0c0,0,0-0.1,0.1-0.1c0.1-0.1,0.2-0.2,0.3-0.4c0,0,0,0,0,0c0.1-0.1,0.2-0.2,0.2-0.4c0-0.1,0.1-0.1,0.1-0.2
		c0-0.1,0.1-0.1,0.1-0.2c0-0.1,0-0.1,0.1-0.2c0,0,0,0,0,0c0,0,0,0,0-0.1c0-0.1,0-0.1,0-0.2v-0.1c0,0,0-0.1,0-0.1c0-0.1,0-0.1,0-0.2
		v-3.2c0,0,0,0,0,0h0c0,0,0-0.1,0-0.2c0-0.1,0-0.1,0-0.2v0c0,0,0,0,0-0.1s0,0,0-0.1c0,0,0-0.1,0-0.1c0,0,0-0.1,0-0.1c0,0,0,0,0,0v0
		c0-0.1,0-0.1-0.1-0.2c0,0,0,0,0-0.1c0,0,0,0,0-0.1c0,0,0-0.1-0.1-0.1c0,0,0-0.1,0-0.1c0,0,0-0.1,0-0.1h0c-0.1-0.1-0.1-0.2-0.2-0.3
		c0,0-0.1-0.1-0.1-0.1c0,0,0,0,0,0s0,0,0,0h0c0,0,0,0,0,0c0,0,0,0,0,0c0,0,0,0,0,0h0c0,0,0-0.1-0.1-0.1c0,0-0.1-0.1-0.1-0.1
		c0,0,0,0,0,0c0,0-0.1-0.1-0.1-0.1c-0.1,0-0.2-0.1-0.3-0.2c-0.1,0-0.1-0.1-0.2-0.1v-65.9c0.2,0,0.4,0,0.6-0.1c0.1,0,0.3,0,0.4,0
		c0.3,0,0.7-0.1,1-0.2c0.3,0,0.6-0.1,0.9-0.2l1-0.2c0.1,0,0.2,0,0.3,0c0.1,0,0.2,0,0.3-0.1c0.2,0,0.4-0.1,0.5-0.1l0,0c0,0,0,0,0.1,0
		c0,0,0.1,0,0.1,0c0.1,0,0.2,0,0.3-0.1c0.2,0,0.3-0.1,0.4-0.1c0.2,0,0.3-0.1,0.4-0.1c0,0,0,0,0,0c0.1,0,0.3-0.1,0.4-0.1
		c0.2,0,0.3-0.1,0.5-0.1c0.1,0,0.1,0,0.2,0c0.1,0,0.2,0,0.3-0.1c0.1,0,0.2,0,0.2-0.1c0.1,0,0.2-0.1,0.3-0.1c0.1,0,0.2-0.1,0.3-0.1
		c0.4-0.1,0.7-0.2,1.1-0.3c0.1,0,0.2-0.1,0.3-0.1v0c0,0,0.1,0,0.1,0c0,0,0.1,0,0.2,0c0.1,0,0.1,0,0.2,0c0.1,0,0.2,0,0.2-0.1
		c0,0,0.1,0,0.1,0c0,0,0,0,0,0c0,0,0.1,0,0.1,0c0.1,0,0.3-0.1,0.4-0.2c0,0,0.1,0,0.2-0.1c0.2-0.1,0.4-0.1,0.5-0.2c0,0,0.1,0,0.1,0
		c0,0,0.1,0,0.1,0c0,0,0.1,0,0.1,0h0l0.5-0.2c0.1,0,0.2-0.1,0.3-0.1c0.2-0.1,0.3-0.2,0.5-0.2c0,0,0.1,0,0.1-0.1c0,0,0.1,0,0.1-0.1
		c0.2-0.1,0.3-0.2,0.5-0.2c0.3-0.2,0.6-0.3,0.9-0.4c0.2-0.1,0.3-0.2,0.5-0.2c0,0,0.1,0,0.1,0c0.3-0.1,0.6-0.2,1-0.3
		c0.6-0.2,1.2-0.4,1.8-0.6c0.4-0.1,0.8-0.2,1.1-0.3c0.5-0.1,1-0.3,1.4-0.4c0.5-0.1,0.9-0.3,1.4-0.4c0.5-0.2,1.1-0.3,1.6-0.4
		c2-0.6,3.9-1,5.5-1.4c0.5-0.1,0.9-0.2,1.4-0.3c0.5-0.1,1-0.2,1.5-0.3c0.5-0.1,0.9-0.2,1.3-0.3c0.6-0.1,1.1-0.2,1.5-0.3
		c0.4-0.1,0.7-0.1,1-0.2c0.9-0.2,1.6-0.3,1.9-0.3c0.1,0,0.1,0,0.2,0c0,0,0,0,0,0s0.1,0,0.2,0c0,0,0,0,0,0c0,0,0,0,0.1,0c0,0,0,0,0,0
		c0,0,0,0,0.1,0c0,0,0,0,0.1,0l0,0c0,0,0,0,0,0c0,0,0.1,0,0.1,0c0,0,0,0,0,0c0,0,0,0,0.1,0c0,0,0.1,0,0.1,0c0.1,0,0.1,0,0.2,0
		c0,0,0.1,0,0.1,0c0.1,0,0.1,0,0.2,0c0,0,0.1,0,0.1,0c0.2,0,0.5-0.1,0.8-0.2c0.1,0,0.2,0,0.3-0.1h0c0,0,0,0,0,0c0,0,0.1,0,0.1,0
		c0,0,0.1,0,0.1,0c0.1,0,0.1,0,0.2,0c0,0,0,0,0,0h0c0.9,0.2,1.6,0.4,1.8,0.5l0,0c-4.2,5.2-6.6,9.9-7.8,14
		c-4.9,17.9,14.7,25.8,19,27.3c0.5,0.2,0.8,0.3,0.8,0.3s0,0,0,0.1c0.1,0.3,0.2,1.3,0.4,2.8c0.5,3.3,1.5,9.2,2.5,16.6
		c0.5,3.4,1,7.2,1.5,11.1v0c0,0.3,0.1,0.6,0.1,0.9c0.2,1.3,0.3,2.6,0.5,4c0.1,0.6,0.2,1.3,0.2,1.9v0c0,0,0,0,0,0.1
		c0.2,1.8,0.4,3.6,0.6,5.4c0.1,1.1,0.2,2.3,0.4,3.4c0,0.1,0,0.3,0.1,0.4c0,0.4,0.1,0.7,0.1,1.1v0c0,0.2,0,0.4,0.1,0.6
		C232.9,344.6,233.2,347,233.4,349.5z"/>
	<path class="st16" d="M265,348.2l-2.6,2.2l-8.8,7.4c0,0-0.3-0.3-1-0.9l0,0c-0.7-0.7-1.8-1.7-3.1-3l0,0c-3.1-3-7.8-7.6-13.4-13.1
		c-0.6-0.6-1.2-1.1-1.8-1.7c-0.7-0.7-1.4-1.4-2.2-2.1c-2-1.9-4-4-6.1-6.1c0,0,0,0-0.1-0.1l0,0c-0.9-0.9-1.7-1.7-2.6-2.6h0v0
		c-0.7-0.7-1.3-1.4-2-2c-0.2-0.5-0.3-1-0.5-1.5v0c0,0,0,0,0,0c0-0.1-0.1-0.2-0.1-0.3c-0.4-1.2-0.8-2.3-1.2-3.3c0,0.8,0,1.9,0.1,3.2
		v0.1c0,0.1,0,0.2,0,0.3v0c0,0.9,0.1,1.8,0.1,2.9c0,0.1,0,0.2,0,0.2v0c0,0.7,0.1,1.5,0.1,2.2v0.1c0.1,1.5,0.2,3.1,0.3,4.9
		c0,0.2,0,0.4,0,0.6c0,0.2,0,0.3,0,0.5c0,0.8,0.1,1.6,0.2,2.4c0.2,3.7,0.5,7.8,0.8,11.9c0,0.5,0.1,0.9,0.1,1.4
		c0.1,1.7,0.2,3.5,0.4,5.3c0.1,1.6,0.2,3.3,0.3,4.9c0,0,0,0,0,0c0,0,0,0,0,0.1c0,0,0,0.1,0,0.1c0,0,0,0.1,0,0.1c0,0.3,0,0.6,0.1,0.9
		c0.1,1.9,0.3,3.8,0.4,5.6c0,0.1,0,0.1,0,0.2c0.5,6.4,0.9,12.3,1.3,17.1c0,0.3,0,0.5,0.1,0.8c-0.6,0.3-1.3,0.6-1.9,0.9
		c-6,2.8-12.2,5.2-18.6,7.2c-0.9,0.3-1.8,0.6-2.8,0.8c-2.2,0.7-4.5,1.3-6.8,1.8c-3.7,0.9-7.4,1.6-11.2,2.2c-8,1.3-16.3,2-24.6,2
		c-1.6,0-3.1,0-4.7-0.1c-8.4-0.2-16.7-1.2-24.7-2.8c-0.9-0.2-1.9-0.4-2.8-0.6c-5-1.1-10-2.4-14.8-4c-5.7-1.8-11.3-4-16.7-6.5
		c0,0,0,0,0,0c0-0.1,0-0.1,0-0.2c0-0.3,0-0.7,0.1-1.1c0-0.1,0-0.1,0-0.2c0-0.1,0-0.2,0-0.3c0-0.4,0-0.8,0.1-1.2c0-0.1,0-0.2,0-0.2
		c0.1-1.8,0.3-3.7,0.4-5.7c0-0.4,0-0.7,0.1-1.1c0-0.3,0-0.6,0.1-0.9c0-0.2,0-0.4,0-0.5c0-0.1,0-0.3,0-0.5c0-0.1,0-0.1,0-0.1
		c0-0.2,0-0.4,0-0.6c0-0.1,0-0.2,0-0.3c0-0.5,0.1-1,0.1-1.5c0-0.1,0-0.2,0-0.3c0-0.5,0.1-1,0.1-1.5c0.1-1,0.1-2,0.2-3
		c0-0.3,0-0.5,0.1-0.8c0-0.2,0-0.4,0-0.7c0,0,0,0,0-0.1c0,0,0-0.1,0-0.1c0-0.3,0-0.7,0.1-1c0,0,0,0,0-0.1c0-0.2,0-0.4,0-0.6
		c0-0.2,0-0.4,0-0.6c0-0.1,0-0.2,0-0.2c0-0.3,0-0.6,0.1-0.8c0,0,0,0,0-0.1c0-0.5,0.1-1,0.1-1.6c0-0.1,0-0.2,0-0.3c0-0.1,0-0.2,0-0.3
		c0,0,0,0,0-0.1c0-0.2,0-0.4,0-0.6c0-0.1,0-0.2,0-0.3c0-0.1,0-0.1,0-0.2c0,0,0-0.1,0-0.1c0-0.2,0-0.4,0-0.6c0-0.2,0-0.4,0-0.6
		c0-0.1,0-0.2,0-0.2v0c0-0.3,0-0.6,0.1-1c0-0.1,0-0.1,0-0.2c0-0.2,0-0.3,0-0.5c0-0.1,0-0.1,0-0.2c0,0,0-0.1,0-0.1v-0.1
		c0,0,0,0,0-0.1c0-0.4,0-0.7,0.1-1.1c0-0.4,0.1-0.8,0.1-1.2c0-0.4,0-0.7,0.1-1.1c0-0.4,0.1-0.8,0.1-1.2c0-0.3,0-0.6,0.1-0.9
		c0-0.2,0-0.4,0-0.7c0-0.1,0-0.3,0-0.4c0-0.4,0.1-0.8,0.1-1.2c0-0.1,0-0.2,0-0.3c0-0.4,0-0.7,0.1-1.1c0-0.4,0.1-0.7,0.1-1.1
		c0,0,0,0,0-0.1v0c0,0,0,0,0-0.1c0,0,0,0,0,0c0-0.2,0-0.4,0-0.6c0,0,0-0.1,0-0.1c0-0.1,0-0.2,0-0.3c0-0.1,0-0.2,0-0.3v-0.1
		c0,0,0,0,0-0.1v-0.1c0,0,0,0,0-0.1c0,0,0-0.1,0-0.2c0-0.1,0-0.2,0-0.3v-0.1c0,0,0,0,0,0v0c0,0,0,0,0,0c0-0.3,0-0.5,0-0.8
		c0,0,0-0.1,0-0.2v-0.1c0-0.2,0-0.4,0-0.5c0-0.2,0-0.5,0-0.8c0-0.1,0-0.3,0-0.4c0-0.1,0-0.1,0-0.2c0-0.1,0-0.1,0-0.2
		c0-0.1,0-0.2,0-0.2c0-0.3,0-0.7,0.1-1c0-0.3,0.1-0.6,0.1-1c0-0.3,0-0.5,0.1-0.8c0-0.1,0-0.2,0-0.3c0-0.5,0.1-1,0.1-1.5
		c0-0.1,0-0.3,0-0.5c0-0.1,0-0.2,0-0.2v0c0-0.1,0-0.1,0-0.2c0-0.1,0-0.3,0-0.4c0-0.6,0.1-1.2,0.1-1.7c0-0.1,0-0.2,0-0.2
		c0-0.1,0-0.3,0-0.4c0,0,0-0.1,0-0.1c0-0.4,0-0.8,0.1-1.1c0-0.1,0-0.2,0-0.3c0-0.4,0-0.8,0.1-1.2c0-0.7,0.1-1.3,0.1-1.9
		c0-0.2,0-0.4,0-0.6c0-0.1,0-0.3,0-0.4c0-0.2,0-0.4,0-0.6c0-0.3,0-0.6,0-0.9c0-0.2,0-0.3,0-0.5c0-0.1,0-0.3,0-0.4c0-0.2,0-0.3,0-0.5
		c0-0.1,0-0.2,0-0.3c0-0.2,0-0.3,0-0.5c0-0.8,0-1.5,0-2v-0.1c0,0,0,0.1,0,0.1c-0.6,1.3-1.1,2.8-1.6,4.5c-0.8,2.5-1.5,5.3-2.1,8.4
		c-0.2,0.7-0.3,1.5-0.5,2.2c-0.1,0.4-0.1,0.8-0.2,1.1c-0.1,0.6-0.2,1.2-0.3,1.8c0,0,0,0.1,0,0.1c-0.3,1.5-0.6,3.1-0.8,4.7
		c-0.1,0.5-0.2,1.1-0.2,1.6c-0.1,0.5-0.1,1-0.2,1.6c-0.1,0.6-0.2,1.3-0.3,1.9c0,0.1,0,0.2,0,0.3c-0.1,1.1-0.3,2.1-0.4,3.2
		c-0.1,1-0.3,2.1-0.4,3.1l-0.2,1.5c0,0.2,0,0.4-0.1,0.6v0c-0.1,0.5-0.1,1-0.2,1.6c-0.1,0.7-0.2,1.5-0.2,2.2c0,0.1,0,0.1,0,0.2
		c0,0.5-0.1,1-0.1,1.5c-0.1,1.1-0.2,2.1-0.3,3.1c0,0.2,0,0.4-0.1,0.6c0,0.2,0,0.4-0.1,0.6c0,0,0,0.1,0,0.1c0,0.2,0,0.5-0.1,0.7
		c0,0,0,0,0,0c0,0.2,0,0.5-0.1,0.7c0,0.2,0,0.5-0.1,0.7c0,0.1,0,0.1,0,0.2l0,0.4c-0.1,1.3-0.2,2.6-0.3,3.9c0,0.1,0,0.2,0,0.2
		c0,0.1,0,0.1,0,0.2c0,0.2,0,0.4,0,0.7c0,0,0,0.1,0,0.1v0c0,0.1,0,0.2,0,0.3c0,0.1,0,0.2,0,0.3c0,0.4-0.1,0.9-0.1,1.3
		c0,0.1,0,0.2,0,0.2v0c0,0.2,0,0.4-0.1,0.6c0,0,0,0.1,0,0.1c-0.1,1.9-0.3,3.8-0.4,5.4c0,0.3,0,0.6-0.1,0.9c0,0.2,0,0.3,0,0.5
		c-0.1,0-0.2-0.1-0.2-0.1c-0.3-0.1-0.6-0.3-0.8-0.4c-0.7-0.4-1.4-0.7-2.1-1.1c-4.5-2.4-8.9-5.1-13.1-8c-5.3-3.6-10.4-7.6-15.3-11.8
		c-1.5-1.3-3-2.7-4.5-4.1v-6c0.5-6.2,1-12.1,1.6-17.2c0-0.1,0-0.3,0-0.4c0-0.5,0-1.1,0.1-1.8c0-0.2,0-0.3,0-0.5c0-0.2,0-0.5,0.1-0.8
		c0-0.2,0-0.4,0-0.6c0-0.2,0-0.3,0-0.5c0.1-1.3,0.3-2.8,0.5-4.4c0-0.3,0.1-0.6,0.1-0.9c0-0.3,0.1-0.6,0.1-1c0-0.3,0.1-0.6,0.1-0.9
		c0.1-0.6,0.2-1.2,0.3-1.8c0-0.3,0.1-0.6,0.2-1c0.2-1.3,0.4-2.5,0.7-3.9c0,0,0,0,0,0v-0.3c0.6-3.1,1.4-6.5,2.3-10
		c5-18.8,15.1-41.2,34.6-50.9v0h0c0,0,0.1-0.1,0.1-0.1c1.6-0.8,3.3-1.5,5-2.1c3.7-1.6,7.1-3.1,10.1-4.3c0,0,0.1,0,0.1,0c0,0,0,0,0,0
		c0,0,0.1,0,0.1,0.1c2.5,1.6,5.9,2.1,5.9,2.1s0.8,0.1,2.2,0.3c1.7,0.3,4.3,0.8,7.6,1.6c2.2,0.5,4.7,1.2,7.5,2c1.1,0.3,2.3,0.7,3.5,1
		c0.7,0.2,1.3,0.4,2,0.6c0.8,0.4,1.6,0.8,2.3,1.1c0.2,0.1,0.4,0.2,0.6,0.3c0.7,0.3,1.5,0.6,2.2,0.8c0.1,0,0.1,0.1,0.2,0.1
		c0.8,0.3,1.5,0.5,2.3,0.7c1.4,0.4,2.7,0.7,4.1,1c0.3,0.1,0.6,0.1,1,0.2c0.5,0.1,1,0.2,1.5,0.3v60.7c-0.9,0.4-1.6,1.2-1.7,2.3v0
		c0,0,0,0,0,0c0,0,0,0,0,0.1c0,0,0,0,0,0.1c0,0,0,0.1,0,0.1v3.2c0,0.1,0,0.2,0,0.3c0,0.2,0.1,0.5,0.2,0.7c0.3,0.7,0.8,1.3,1.5,1.7h0
		c0.3,0.1,0.7,0.2,1.1,0.2c0.4,0,0.8-0.1,1.2-0.2c0.8-0.3,1.3-1,1.6-1.8c0.1-0.2,0.1-0.4,0.1-0.5v-0.1c0,0,0,0,0,0v-3.3
		c0-0.1,0-0.1,0-0.2c0-0.2,0-0.4-0.1-0.6c-0.1-0.5-0.4-1-0.7-1.3c-0.1-0.1-0.1-0.1-0.2-0.2c-0.2-0.2-0.4-0.3-0.7-0.4v-60.4
		c0.3,0,0.6,0.1,0.9,0.1c0,0,0,0,0,0c1.4,0.1,2.7,0.2,4.1,0.2c1.6,0,3.3-0.1,5-0.3v60.4c-0.3,0.1-0.6,0.3-0.9,0.6
		c-0.5,0.5-0.8,1.2-0.8,2v3.2c0,0.3,0,0.5,0.1,0.8c0.2,0.6,0.5,1.2,1.1,1.5c0.5,0.3,1.1,0.5,1.7,0.5c0.6,0,1.1-0.2,1.5-0.4
		c0,0,0,0,0,0c0.5-0.3,0.9-0.8,1.1-1.4v0c0-0.1,0.1-0.2,0.1-0.3c0.1-0.2,0.1-0.5,0.1-0.8v-3.2c0-0.2,0-0.4-0.1-0.6
		c0-0.1,0-0.1-0.1-0.2c-0.2-0.8-0.8-1.5-1.6-1.8v-60.7c0.7-0.1,1.3-0.2,2-0.3h0c0.8-0.2,1.6-0.3,2.5-0.5h0c1.5-0.4,3-0.8,4.5-1.3
		c0,0,0,0,0,0c0.6-0.2,1.2-0.5,1.9-0.7c1.1-0.5,2.2-1,3.4-1.5c1.6-0.5,3.1-1,4.5-1.4c0.5-0.1,0.9-0.3,1.4-0.4c0.3-0.1,0.7-0.2,1-0.3
		c0,0,0,0,0,0c0.7-0.2,1.3-0.4,2-0.6c8.5-2.3,13.8-3,13.8-3s3.5-0.5,6-2.1c0,0,0,0,0,0c1.1,0.4,2.1,0.9,3.3,1.4h0
		c0.1,0.1,0.3,0.1,0.4,0.2l1,0.4l0,0l7.5,3.2c0,0,0,0,0,0c8.5,3.5,15.4,9.3,20.8,16.3c5.1,6.5,9,13.9,12,21.4c0,0,0,0,0,0
		c3.4,8.6,5.7,17.2,7.1,24.5c0,0.1,0,0.1,0,0.2v0.1c1.7,8.7,2.2,15.5,2.3,18.3c0.3,2.8,0.6,5.8,0.9,8.9v0
		C264.8,346.2,264.9,347.2,265,348.2z"/>
	<path class="st29" d="M216.9,248.9C216.9,248.9,216.8,248.9,216.9,248.9c-0.1,0.2-0.2,0.3-0.3,0.4c0,0-0.1,0.1-0.1,0.1
		c0,0,0,0.1,0,0.1c-1,1-2.4,1.7-3.8,2.1c0,0,0,0,0,0c0,0,0,0,0,0h0c-0.1,0-0.2,0.1-0.3,0.1h0c0,0,0,0,0,0c-0.1,0-0.1,0-0.2,0
		c0,0-0.1,0-0.1,0c0,0-0.1,0-0.1,0.1h0c-0.1,0-0.2,0-0.3,0.1c-0.3,0.1-0.5,0.1-0.8,0.2c0,0-0.1,0-0.1,0c0,0-0.1,0-0.1,0
		c-0.1,0-0.1,0-0.2,0c-0.1,0-0.2,0-0.2,0c0,0-0.1,0-0.1,0c0,0,0,0-0.1,0c0,0,0,0,0,0c0,0-0.1,0-0.1,0c0,0,0,0,0,0l0,0c0,0,0,0-0.1,0
		c0,0,0,0-0.1,0c0,0,0,0,0,0c0,0-0.1,0-0.1,0c-0.1,0-0.2,0-0.2,0s0,0,0,0c0,0-0.1,0-0.2,0c-0.3,0-0.9,0.1-1.9,0.3
		c-0.3,0.1-0.6,0.1-1,0.2c-0.5,0.1-1,0.2-1.5,0.3c-0.4,0.1-0.9,0.2-1.3,0.3c-0.5,0.1-1,0.2-1.5,0.3c-0.4,0.1-0.9,0.2-1.4,0.3
		c-1.6,0.4-3.5,0.9-5.5,1.4c-0.5,0.1-1,0.3-1.6,0.4c-0.5,0.1-0.9,0.3-1.4,0.4c-0.5,0.1-0.9,0.3-1.4,0.4c-0.4,0.1-0.7,0.2-1.1,0.3
		c-0.6,0.2-1.2,0.4-1.8,0.6c-0.4,0.1-0.7,0.2-1.1,0.4c-0.2,0.1-0.3,0.1-0.5,0.2c-0.3,0.2-0.6,0.3-0.9,0.4c-0.2,0.1-0.4,0.2-0.5,0.2
		c-0.1,0-0.2,0.1-0.3,0.1c-0.2,0.1-0.4,0.1-0.5,0.2c-0.1,0-0.2,0.1-0.3,0.1l-0.5,0.2h0l-0.1,0c0,0,0,0,0,0c0,0-0.1,0-0.1,0
		s-0.1,0-0.1,0c0,0,0,0,0,0c-0.2,0.1-0.3,0.1-0.5,0.2c-0.1,0-0.1,0-0.2,0.1c-0.1,0-0.3,0.1-0.4,0.2c-0.1,0-0.1,0-0.2,0.1
		c0,0,0,0-0.1,0c-0.1,0-0.1,0-0.2,0.1c0,0-0.1,0-0.2,0c-0.1,0-0.1,0-0.2,0c0,0-0.1,0-0.1,0c-0.1,0-0.2,0.1-0.3,0.1
		c-0.4,0.1-0.7,0.2-1.1,0.3c-0.1,0-0.2,0.1-0.3,0.1c-0.1,0-0.2,0.1-0.3,0.1c-0.1,0-0.2,0-0.2,0.1c-0.1,0-0.2,0.1-0.3,0.1
		c-0.1,0-0.1,0-0.2,0c-0.2,0-0.4,0.1-0.5,0.1c-0.1,0-0.3,0.1-0.4,0.1c0,0,0,0,0,0c-0.1,0-0.3,0.1-0.4,0.1c-0.1,0-0.3,0.1-0.4,0.1
		c-0.1,0-0.3,0.1-0.4,0.1c-0.2,0-0.4,0.1-0.5,0.1c-0.1,0-0.2,0-0.3,0.1c-0.1,0-0.2,0-0.3,0.1l-1,0.2c-0.3,0.1-0.6,0.1-0.9,0.2
		c-0.2,0-0.4,0.1-0.6,0.1c-0.1,0-0.2,0-0.3,0c-0.1,0-0.3,0-0.4,0.1c-0.2,0-0.4,0-0.6,0.1h0c-0.8,0.1-1.6,0.2-2.5,0.2h0
		c0,0-0.1,0-0.1,0c-0.4,0-0.8,0.1-1.1,0.1c-0.2,0-0.5,0-0.8,0h0c-0.8,0-1.5,0.1-2.3,0.1c-0.7,0-1.4,0-2,0c-1.4,0-2.9,0-4.4-0.1
		c-0.5,0-1,0-1.5-0.1c-0.3,0-0.7,0-1-0.1c-0.2,0-0.3,0-0.5,0c-0.2,0-0.5,0-0.7-0.1c-0.8-0.1-1.5-0.2-2.3-0.3h0c-1-0.1-2-0.3-3-0.5
		c-0.2,0-0.3-0.1-0.5-0.1c-0.2,0-0.3-0.1-0.5-0.1c-0.5-0.1-1-0.2-1.6-0.4c-0.4-0.1-0.8-0.2-1.2-0.3c-0.4-0.1-0.8-0.2-1.1-0.3
		c-0.4-0.1-0.8-0.2-1.1-0.4c-0.7-0.2-1.4-0.5-2.1-0.8c-0.2-0.1-0.4-0.2-0.6-0.2c-0.9-0.4-1.7-0.8-2.6-1.2c-0.4-0.1-0.8-0.3-1.3-0.4
		c-0.9-0.3-1.8-0.6-2.7-0.8c-0.4-0.1-0.8-0.3-1.3-0.4c-0.4-0.1-0.7-0.2-1.1-0.3c-0.6-0.2-1.2-0.3-1.7-0.5c-1.8-0.5-3.5-0.9-5-1.3
		c-0.4-0.1-0.8-0.2-1.2-0.3c-0.8-0.2-1.6-0.4-2.4-0.5c-0.5-0.1-0.9-0.2-1.4-0.3c-0.2,0-0.4-0.1-0.6-0.1c-0.4-0.1-0.7-0.1-1.1-0.2
		c-0.2,0-0.4-0.1-0.6-0.1c-0.2,0-0.3-0.1-0.5-0.1c-0.2,0-0.4-0.1-0.6-0.1c-0.5-0.1-0.8-0.1-1-0.2c-0.1,0-0.2,0-0.3,0
		c-0.1,0-0.1,0-0.1,0s-3.5-0.5-6-2.1c0,0,0,0,0,0c0,0-0.1-0.1-0.1-0.1c-0.4-0.3-0.8-0.6-1.2-1c-1.6-1.7-1.9-4.4,1.7-8.3
		c3-6.4,9.8-18.6,26-19.8c0,0,0,0,0,0c0,0,0,0,0.1,0c0,0,0,0,0.1,0h0c0.9-0.1,1.9-0.1,2.8-0.1h0c0.1,0,0.1,0,0.2,0
		c0.5,0,0.9,0,1.4,0h0c0.4,0,0.8,0,1.3,0.1c0,0.1,0,0.2,0,0.3c0,0.3,0.1,0.5,0.1,0.8c0.2,4.6-2.6,12.7-2.8,13.2v0c0,0,0,0,0,0
		s10.8,3.4,18.2,12.5c0.3,0.4,0.6,0.8,0.9,1.2c0.1,0.2,0.2,0.3,0.3,0.5c0.4,0.5,0.7,1,1,1.5c1.3,2,2.4,4.3,3.2,6.8
		c0.1-0.2,0.1-0.4,0.2-0.6c0.8-2.3,1.8-4.3,3-6.2c0.3-0.5,0.7-1,1-1.5c0.4-0.6,0.8-1.1,1.2-1.6c1.6-2,3.4-3.7,5.2-5.1
		c3.3-2.7,6.7-4.6,9.2-5.8c0,0,0.1,0,0.1,0c0.7-0.3,1.3-0.6,1.8-0.8h0c0.4-0.2,0.8-0.3,1.1-0.4c0.5-0.2,0.8-0.3,0.8-0.3s0,0,0-0.1
		c-0.3-1.1-2.4-8.9-1-12.3c0.1-0.3,0.2-0.6,0.4-0.8c0.1-0.1,0.2-0.2,0.2-0.3l0,0c0.1-0.1,0.3-0.2,0.4-0.3c0.1,0,0.3-0.1,0.4-0.1
		c0.1,0,0.3-0.1,0.4-0.1c0.1,0,0.2,0,0.4-0.1c0,0,0,0,0,0c0.1,0,0.2,0,0.3-0.1c0.2,0,0.4-0.1,0.6-0.1c0,0,0.1,0,0.1,0
		c0.1,0,0.2-0.1,0.4-0.1c16.8,0.8,23.8,13.3,26.8,19.8C218.3,244.6,218.2,247.1,216.9,248.9z"/>
	<circle class="st30" cx="152.9" cy="255.6" r="1.9"/>
	<circle class="st30" cx="169.6" cy="255.6" r="1.9"/>
	<path class="st31" d="M152.9,255.3L152.9,255.3c-0.6,0-1.2,0.5-1.2,1.1v93.1c0,0.6,0.5,1.1,1.1,1.1h0c0.6,0,1.1-0.5,1.1-1.1v-93.1
		C154,255.9,153.5,255.3,152.9,255.3z"/>
	<path class="st31" d="M169.6,255.3L169.6,255.3c-0.7,0-1.2,0.5-1.2,1.2v46.7c0,0.7,0.5,1.2,1.2,1.2h0c0.7,0,1.2-0.5,1.2-1.2v-46.7
		C170.8,255.9,170.3,255.3,169.6,255.3z"/>
	<path class="st32" d="M155.7,351v3.2c0,1.6-1.3,2.9-2.9,2.9c-1.6,0-2.9-1.3-2.9-2.9V351c0-1.2,0.7-2.2,1.7-2.6
		c0.3-0.2,0.7-0.2,1.1-0.2c0.4,0,0.8,0.1,1.1,0.2c0.3,0.1,0.6,0.4,0.9,0.6C155.4,349.5,155.7,350.2,155.7,351z"/>
	<path class="st32" d="M172.5,304.3v3.2c0,1.6-1.3,2.9-2.9,2.9c-1.6,0-2.9-1.3-2.9-2.9v-3.2c0-1.2,0.7-2.2,1.7-2.6
		c0.3-0.2,0.7-0.2,1.1-0.2c0.4,0,0.8,0.1,1.1,0.2c0.3,0.1,0.6,0.4,0.9,0.6C172.2,302.8,172.5,303.5,172.5,304.3z"/>
	<path class="st32" d="M172.5,331.3v3.2c0,1.6-1.3,2.9-2.9,2.9c-1.6,0-2.9-1.3-2.9-2.9v-3.2c0-1.1,0.7-2.1,1.6-2.6
		c0.4-0.2,0.8-0.3,1.2-0.3s0.9,0.1,1.2,0.3c0.3,0.1,0.6,0.3,0.8,0.5C172.2,329.8,172.5,330.5,172.5,331.3z"/>
	<path class="st33" d="M230.7,129.6c0-0.1,0-0.3,0-0.4C227.5,95.7,201,75,201,75c-11.2,5.3-21.7,7.6-31,8.2
		c-7.2,0.5-13.7-0.1-19.2-1.1c-0.8-0.1-1.6-0.3-2.4-0.5C137,79.2,130.2,75,130.2,75c-19.5,0.1-34.4,54.6-36.6,65.6c0,0,0,0,0,0
		c-9.3-74.9,10.5-82.4,15.9-85.3c-8-12.3-4.1-28.8-4.1-28.8l25.9-0.2l4.4,0l6.3,0c0,0-0.9-2.6-4.1-6.7c6.2-0.3,12.6,0.3,18.8,1.4
		c20.4,3.5,38.4,12.4,38.9,12.7c0-0.1-0.3-0.5-1.3-2.3c5,0,5.6,0,31.8,14.3C226.1,45.6,249.7,88.9,230.7,129.6z"/>
	<path class="st16" d="M110.9,304.6v89.7c-5.7-1.8-11.3-4-16.7-6.5c0,0,0,0,0,0c-0.1-0.1-0.2-0.1-0.3-0.2c-0.4-0.2-0.7-0.3-1.1-0.5
		c-1.4-0.6-2.7-1.3-4-2h0c-0.1,0-0.2-0.1-0.2-0.1c-0.3-0.1-0.6-0.3-0.8-0.4c-0.7-0.4-1.4-0.7-2.1-1.1c-4.5-2.4-8.9-5.1-13.1-8v-70.9
		H110.9z"/>
	<path class="st16" d="M220.6,292.1l4.4,1.4C223.6,293,222.1,292.5,220.6,292.1z"/>
	<path class="st20" d="M132.1,373.5l-3.5,25.3c-0.9-0.2-1.9-0.4-2.8-0.6C127.2,386,132.1,373.5,132.1,373.5z"/>
	<path class="st20" d="M203.3,394.8c-0.9,0.3-1.8,0.6-2.8,0.8l-3.1-22.1C197.8,374.2,201.6,384.1,203.3,394.8z"/>
	<path class="st4" d="M138.5,235.5c1-9.5,0.3-13.3,0-14.4c-0.1-0.3-0.1-0.4-0.1-0.4l8.5-2.4l1.1,4.6l2.7,10.9
		C150.6,233.7,150.6,233.7,138.5,235.5z"/>
	<path class="st16" d="M216.8,249c-0.1,0.1-0.1,0.2-0.2,0.3c0,0-0.1,0.1-0.1,0.1C216.6,249.2,216.7,249.1,216.8,249z"/>
	<path class="st34" d="M233.4,329.6c0,0,25.8,4.2,29.6,10C254.3,338,233.4,329.6,233.4,329.6z"/>
	<path class="st9" d="M201.9,315.5c0,0-2.1-3.8-6.3-2.3c0,0,0.7,0.9,0.7,1.9c0,0-0.4-0.6-1.2-1c0,0,0,0,0,0h0c0,0,0,0,0,0
		c0,0,0,0-0.1,0c0,0,0,0,0,0c-0.1,0-0.2-0.1-0.3-0.1c0,0,0,0,0,0c-0.3-0.1-0.6-0.1-0.8-0.1c0,0,0,0,0,0c-0.1,0-0.2,0-0.4,0h0
		c-0.5,0-1.5,0.1-3.3,0.6c0,0-2.3,0.5-4.6-0.2c0,0,0.2,0.4,1,1.1c0,0-8.5-2.4-5.9-11.1c0,0,3,7.9,9.2-0.6c0,0-0.1,1.4-0.6,2.5
		c1-0.4,5.6-2.1,9.7,1.7h0C200.5,309.3,201.7,311.6,201.9,315.5z"/>
	<path class="st16" d="M265.1,348.7c0,7.7-5.1,14.2-12.2,16.3c0,0,0,0,0,0c-1.5,0.5-3.2,0.7-4.9,0.7c-4.8,0-9.1-2-12.2-5.1
		c-1.7-1.7-3-3.8-3.9-6.2v0c-0.3-0.7-0.5-1.5-0.6-2.2v0c-0.2-1.1-0.4-2.3-0.4-3.5c0-2.5,0.5-5,1.6-7.1v0c0.5-1,1-1.9,1.6-2.8
		c1.9-2.7,4.5-4.8,7.6-6c0,0,0,0,0,0c1-0.4,2-0.7,3.1-0.9h0c0.3-0.1,0.5-0.1,0.8-0.1c0.7-0.1,1.5-0.2,2.3-0.2c3.1,0,6.1,0.9,8.6,2.3
		c0.6,0.4,1.2,0.7,1.7,1.2c1,0.8,2,1.7,2.8,2.7c0.4,0.5,0.8,1,1.2,1.6c1.1,1.7,1.9,3.6,2.3,5.6v0C265,346.3,265.1,347.5,265.1,348.7
		z"/>
	<path class="st34" d="M239.8,332.1l-38.3-4.3c0.5-2.9,23.3-3.6,23.3-3.6c-3-3.3-5.7-18.4-5.8-19
		C219.2,305.8,228.1,326.3,239.8,332.1z"/>
	<path class="st34" d="M229.7,361.6c-24,2.6-66.7-15-66.7-15l-1.1-0.6l1-0.5l0.7,0.8l14.3-6.8l50.8,14.1
		C228.6,353.7,253.7,359,229.7,361.6z"/>
	<path class="st35" d="M180.5,340.6l-8.6,5.5c0,0-8-1.2-12-1.4l0.1-0.1c0,0-7.4-2.4-13.5-3.2c-5.7-0.8-7-6.6-7.2-7.3v0
		c0-0.1,0-0.3,0-0.4c-2.5-1.2-4-2.5-4-2.5s-1-1.6,0.6-4c-1.5-0.4-6.1-2.3-9.9-4.3c-3.3-1.7-6-3.6-5.6-4.5c0,0,0-0.1,0.1-0.1
		c0.3-0.8,0.7-1.2,0.9-1.4c0.3-0.2,0.5-0.1,0.5-0.1s1.5,0.2,4.1,0.9c3.3,0.8,8.5,2.4,14.4,5.1h0c0,0,2.5,0.5,1.1-1.9
		c-0.9-0.9-4.8-4-7.8-7.1c-2.4-2.8-4.2-5.4-3.6-6.2c0,0,0,0,0-0.1c0.2-0.2,0.4-0.4,0.5-0.5l0,0c0.4-0.1,0.8-0.1,1.4,0.1
		c0.9,0.3,2,0.8,3.2,1.6c0,0,0.1,0,0.1,0.1c5.3,3.3,12.5,10.2,12.5,10.2l18.1,10.5c0,0,7.7,2.9,9.4,1.8L180.5,340.6z"/>
	<path class="st16" d="M258.7,334.5l-0.3,0.7L258,336c0,0,0,0,0,0.1v0c0,0.3-0.1,1-0.3,2.2v0c-0.3,2.6-1.1,7-2.5,11.5
		c-0.7,2.4-1.6,4.8-2.7,6.9c-0.4,0.9-0.9,1.7-1.3,2.4c2.1,1.7,4.7,4.4,1.6,5.9c0,0,0,0,0,0c-4.4,2.1-13.9,0.2-15.1,0c0,0,0,0-0.1,0
		c0,0,0,0,0,0c-0.2,0-0.3-0.1-0.5-0.1l-0.2,0c-0.5-0.1-1.1-0.2-1.7-0.3c-1.8-0.3-3.8-0.7-6.1-1.1l-0.2,0c-0.6-0.1-1.2-0.2-1.8-0.3
		c-1.7-0.3-3.5-0.7-5.3-1.1c-0.3-0.1-0.6-0.1-1-0.2c0,0,0,0,0,0c-8.1-1.8-17.4-3.9-26.2-6.1c-2.4-0.6-4.8-1.2-7.2-1.8
		c-11.6-3-21.5-5.9-25.6-7.7c0,0,0,0,0,0c-1.3-0.6-2-1.1-2-1.4v0c0,0,0-0.1,0-0.1c0-0.1,0.1-0.2,0.2-0.3c1.3-2.5,2.5-6.4,3.4-13
		c0.1-1,0.3-2,0.4-3.1v0c0-0.2,0-0.4,0.1-0.6c0-0.1,0-0.1,0-0.2v0c0.8-1,2.1-1.8,4-2.4c0.1,0,0.3-0.1,0.4-0.1c0,0,0,0,0,0
		c0.8-0.2,1.6-0.4,2.5-0.6h0c4.7-0.8,11.1-0.9,18.5-0.4c1.4,0.1,2.7,0.2,4.1,0.3c0.1,0,0.3,0,0.4,0h0c4.3,0.4,8.8,0.8,13.4,1.4h0
		c4.1,0.5,8.3,1.1,12.4,1.7c1.2,0.2,2.4,0.4,3.6,0.6c0,0,0,0,0,0h0c2.7,0.4,5.3,0.8,7.9,1.3c0.1,0,0.1,0,0.2,0
		c1.8,0.3,3.5,0.6,5.2,0.9c3.3,0.6,6.4,1.2,9.2,1.7c3.1,0.6,5.8,1.1,8,1.6c1.2,0.2,2.1,0.4,2.9,0.6
		C258,334.3,258.7,334.5,258.7,334.5z"/>
	<path class="st34" d="M164,327.4c0,0,22.6-4.9,60.7-3.3l-1.4,3.7C223.3,327.9,201.4,325.4,164,327.4z"/>
	<path class="st8" d="M139.3,333.7c0,0,2.7,0.2,3.1,0.7c-0.6,0-3.1-0.4-3.1-0.4V333.7z"/>
	<path class="st8" d="M135.8,327.2c0,0,5,0.9,5.6,1.4c-1.5-0.1-5.9-0.9-5.9-0.9L135.8,327.2z"/>
	<path class="st35" d="M135.2,308.6c-1.2-0.7-2.3-1.3-3.2-1.6c-0.6-0.2-1-0.2-1.4-0.1c0.3-0.3,0.6-0.4,0.8-0.5c0,0,0,0,0,0
		c0.5-0.1,0.7,0.1,0.7,0.1S133.2,307.2,135.2,308.6z"/>
	<path class="st36" d="M124,319.4c-1.3,1.1-3.4-0.9-3.6-1.1c0.3-0.8,0.7-1.2,0.9-1.4C121.3,316.9,125.3,318.3,124,319.4z"/>
	<path class="st36" d="M132.9,309.7c-1.4,0.5-2.6-1.6-2.9-2.1c0,0,0,0,0-0.1c0.2-0.2,0.4-0.4,0.5-0.5l0,0c0.3-0.3,0.6-0.4,0.8-0.5
		c0,0,0,0,0,0c0.1,0.1,0.3,0.3,0.6,0.6C132.9,307.8,134.1,309.3,132.9,309.7z"/>
</g>
<polygon class="st37" points="52.7,359.5 217.7,376 229.6,383.8 233.4,409.5 125.8,432 37.8,389.9 "/>
<path class="st20" d="M96.2,360.3c0,0.1,0,0.2,0,0.3c-1,11.5-1.9,22.3-2.3,27c-0.4-0.2-0.7-0.3-1.1-0.5c-1.4-0.6-2.7-1.3-4-2h0
	c-0.1,0-0.2-0.1-0.2-0.1c0.6-9.7,1.5-18.3,2.4-25.7c0.1-0.5,0.1-1,0.2-1.6v0c2.9-22.1,6.5-34,7.5-36.8
	C99.2,322.7,97.7,342.4,96.2,360.3z"/>
<path class="st12" d="M187.7,220.1c-3.6-52-10.6-99.3-17.6-136.9c-0.6-3.3-1.2-6.6-1.9-9.8c-4.2-21.4-8.2-39.3-11.5-52.4
	c20.4,3.5,38.4,12.4,38.9,12.7c0-0.1-0.3-0.5-1.3-2.3c5,0,5.6,0,31.8,14.3c0,0,23.6,43.3,4.6,84c0-0.1,0-0.3,0-0.4
	C231.4,165.3,223.9,207.9,187.7,220.1z"/>
<path class="st12" d="M265.1,348.7c0,7.7-5.1,14.2-12.2,16.3c0,0,0,0,0,0c-4.4,2.1-13.9,0.2-15.1,0c0,0,0,0-0.1,0c0,0,0,0,0,0
	c-0.2,0-0.3-0.1-0.5-0.1l-0.2,0c-0.5-0.1-1.1-0.2-1.7-0.3c-1.8-0.3-3.8-0.7-6.1-1.1l-0.2,0c-0.6-0.1-1.2-0.2-1.8-0.3
	c0,0.2,0.1,0.5,0.1,0.7c0.1,1,0.2,2,0.4,3.2c0.5,4.7,1.2,10.7,1.8,16.8c-0.4,0.2-0.9,0.5-1.3,0.7c-1.5,0.8-3,1.5-4.5,2.2
	c-0.6,0.3-1.3,0.6-1.9,0.9c-6,2.8-12.2,5.2-18.6,7.2c-0.9,0.3-1.8,0.6-2.8,0.8c-2.2,0.7-4.5,1.3-6.8,1.8c-3.7,0.9-7.4,1.6-11.2,2.2
	c2.1-14.8,3.7-29.7,4.9-44.5c0-0.4,0.1-0.9,0.1-1.3c0.3-3.8,0.6-7.6,0.8-11.4c0.3-5.3,0.6-10.5,0.8-15.8c0-0.7,0.1-1.5,0.1-2.2
	c0-0.2,0-0.4,0-0.6c0.1-3,0.2-6,0.3-9c0-0.1,0-0.2,0-0.3c0.1-2.4,0.1-4.7,0.2-7.1c0-0.5,0-1.1,0-1.6c0.3-16.5,0.2-32.7-0.4-48.7
	c0-0.6,0-1.2-0.1-1.9c-0.1-4-0.3-7.9-0.5-11.8c0-0.1,0-0.1,0-0.2c0,0,0,0,0,0c0-0.4,0-0.8-0.1-1.2c0-0.9-0.1-1.7-0.1-2.6
	c-0.1-2.6-0.3-5.2-0.4-7.9c0-0.1,0-0.2,0-0.3c-0.2-3.4-0.4-6.7-0.6-10.1c0.1,0,0.2-0.1,0.4-0.1c16.8,0.8,23.8,13.3,26.8,19.8
	c3.4,3.7,3.4,6.2,2,7.9c0,0,0,0.1-0.1,0.1c-0.1,0.1-0.1,0.2-0.2,0.3c0,0-0.1,0.1-0.1,0.1c0,0,0,0.1,0,0.1c-1,1-2.4,1.7-3.8,2.1
	c0,0,0,0,0,0c0.1,0.1,0.3,0.1,0.4,0.2l1,0.4l0,0l7.5,3.2c0,0,0,0,0,0c8.5,3.5,15.4,9.3,20.8,16.3c5.1,6.5,9,13.9,12,21.4
	c0,0,0,0,0,0c3.4,8.6,5.7,17.2,7.1,24.5c0,0.1,0,0.1,0,0.2v0.1c1.7,8.7,2.2,15.5,2.3,18.3c0.3,2.8,0.6,5.8,0.9,8.9v0
	C265,346.3,265.1,347.5,265.1,348.7z"/>
</svg>
